<svg xmlns="http://www.w3.org/2000/svg" xmlns:v="https://svgstorm.com"
viewBox = "0 0 1115 267"
width="1115"
height="267">
<g fill="None" fill-opacity="0.0" stroke="#FEFEFE" stroke-opacity="1.00" stroke-width="0.3"><path d="
M 0.00 267.00 
L 388.00 267.00
C 388.00 266.50 388.00 266.00 388.00 266.00
C 366.47 266.00 348.80 253.50 333.00 240.00
C 331.13 238.40 329.56 236.82 328.00 235.00
C 322.41 228.46 316.54 220.98 311.70 214.30 C 306.85 207.62 301.50 196.77 297.69 190.31 C 293.89 183.84 285.58 165.22 295.68 168.32 C 305.77 171.43 311.18 177.47 320.70 181.31 C 330.21 185.14 338.32 188.48 348.02 191.98 C 357.73 195.48 367.61 198.28 378.00 200.00
C 378.49 199.94 380.02 199.00 380.00 199.00
C 379.39 198.09 379.41 196.07 379.00 195.00
C 378.62 193.99 378.12 193.50 378.00 192.00
C 370.54 167.74 339.60 153.37 333.00 129.00
C 331.14 127.75 328.25 127.79 326.00 126.00
C 327.70 130.01 325.47 142.92 332.30 146.70 C 339.12 150.49 342.12 157.85 348.23 162.77 C 354.34 167.69 358.77 174.74 361.00 182.00
C 349.69 174.36 345.43 164.34 333.32 157.68 C 321.21 151.02 317.96 134.17 320.00 121.00
C 318.57 114.95 310.72 111.83 312.34 105.32 C 313.95 98.82 311.68 93.05 314.75 87.75 C 317.82 82.45 321.65 78.92 325.70 74.70 C 329.74 70.47 330.89 63.30 335.00 59.00
C 343.20 61.42 348.97 57.05 357.02 56.02 C 365.08 54.99 374.74 54.23 369.00 65.00
C 375.98 63.74 386.16 77.79 389.00 66.00
C 397.65 67.27 405.64 71.32 415.00 70.00
C 414.49 78.85 421.99 85.65 422.98 94.02 C 423.96 102.40 433.96 106.44 435.00 114.00
C 440.20 117.01 446.79 116.44 452.00 114.00
C 453.24 131.08 431.83 136.38 428.00 151.00
C 427.96 151.50 427.85 152.55 428.00 153.00
C 428.61 154.76 429.99 158.65 430.00 160.00
C 435.29 151.18 443.87 146.11 447.99 135.99 C 452.12 125.87 457.07 112.57 456.00 101.00
C 463.28 113.58 461.29 129.33 453.25 140.25 C 445.21 151.16 436.91 158.58 431.00 170.00
C 429.73 173.72 429.58 172.71 427.00 175.00
C 423.61 178.01 419.45 182.99 420.00 187.00
C 420.20 188.48 421.59 190.40 421.00 192.00
C 426.18 189.63 431.73 185.97 437.00 184.00
C 439.01 180.97 436.68 179.12 437.00 176.00
C 437.63 169.80 445.02 165.30 449.75 160.75 C 454.48 156.20 459.30 152.19 464.75 146.75 C 470.20 141.32 469.10 130.89 471.00 124.00
C 470.97 122.57 475.26 128.85 474.00 135.00 C 472.74 141.15 474.64 142.51 469.25 148.25 C 463.85 153.99 456.14 160.26 449.00 165.00
C 451.52 167.99 454.44 172.14 452.00 176.00
C 459.11 171.36 464.30 163.33 467.00 157.00
C 469.88 157.66 468.84 162.74 473.00 160.00
C 473.44 159.83 474.00 160.00 474.00 160.00
C 522.19 103.60 578.47 53.00 656.00 53.00
C 661.98 52.42 669.09 52.43 675.00 53.00
C 697.68 53.00 721.46 59.49 742.02 65.98 C 762.59 72.46 776.11 84.62 794.08 94.92 C 812.05 105.22 818.28 139.44 794.78 141.78 C 771.28 144.12 763.98 120.27 747.25 108.75 C 730.51 97.23 717.54 85.17 698.31 76.69 C 679.07 68.22 653.61 62.59 631.98 64.98 C 610.34 67.36 590.40 75.32 573.25 87.25 C 556.11 99.19 545.16 110.78 532.70 126.70 C 520.23 142.61 510.35 158.98 502.08 177.08 C 493.80 195.17 483.99 211.80 471.00 227.00
C 467.04 231.63 462.58 236.09 458.00 240.00
C 442.29 253.43 423.02 265.20 402.00 266.00
C 402.02 266.00 402.00 267.00 402.00 267.00
L 1115.00 267.00
L 1115.00 0.00
L 0.00 0.00
L 0.00 267.00
M 347.00 180.00 
C 355.14 183.43 364.46 187.08 372.00 192.00
C 374.32 193.51 376.55 195.72 378.00 198.00
C 375.58 196.97 373.47 197.10 371.00 198.00
C 364.99 189.72 351.97 190.77 345.00 183.00
C 333.63 179.26 328.90 174.70 326.00 163.00
C 325.55 161.17 324.28 158.48 325.00 156.00
C 333.95 161.98 335.37 175.82 347.00 180.00 Z"/>
</g>
<g fill="None" fill-opacity="0.0" stroke="#9B9B9B" stroke-opacity="1.00" stroke-width="0.3"><path d="
M 656.00 53.00 
C 662.33 53.00 668.67 53.00 675.00 53.00
C 669.09 52.43 661.98 52.42 656.00 53.00 Z"/>
</g>
<g fill="None" fill-opacity="0.0" stroke="#2A2A2A" stroke-opacity="1.00" stroke-width="0.3"><path d="
M 474.00 160.00 
C 472.38 161.90 470.71 164.29 469.00 166.00
C 468.58 167.05 470.07 170.65 468.00 172.00
C 459.85 174.13 457.51 184.27 448.00 186.00
C 446.38 187.46 443.54 187.91 444.00 191.00
C 442.00 191.00 440.00 191.00 438.00 191.00
C 437.52 192.13 436.94 192.40 436.00 193.00
C 429.84 196.93 422.86 198.21 416.00 200.00
C 415.76 200.06 415.35 200.97 415.00 201.00
C 409.35 207.60 386.29 207.29 379.00 201.00
C 378.73 200.76 378.21 200.04 378.00 200.00
C 367.61 198.28 357.73 195.48 348.02 191.98 C 338.32 188.48 330.21 185.14 320.70 181.31 C 311.18 177.47 305.77 171.43 295.68 168.32 C 285.58 165.22 293.89 183.84 297.69 190.31 C 301.50 196.77 306.85 207.62 311.70 214.30 C 316.54 220.98 322.41 228.46 328.00 235.00
C 329.59 236.59 331.45 238.45 333.00 240.00
C 348.80 253.50 366.47 266.00 388.00 266.00
C 392.65 266.00 397.35 266.18 402.00 266.00
C 423.02 265.20 442.29 253.43 458.00 240.00
C 462.25 235.75 466.80 231.20 471.00 227.00
C 483.99 211.80 493.80 195.17 502.08 177.08 C 510.35 158.98 520.23 142.61 532.70 126.70 C 545.16 110.78 556.11 99.19 573.25 87.25 C 590.40 75.32 610.34 67.36 631.98 64.98 C 653.61 62.59 679.07 68.22 698.31 76.69 C 717.54 85.17 730.51 97.23 747.25 108.75 C 763.98 120.27 771.28 144.12 794.78 141.78 C 818.28 139.44 812.05 105.22 794.08 94.92 C 776.11 84.62 762.59 72.46 742.02 65.98 C 721.46 59.49 697.68 53.00 675.00 53.00
C 668.67 53.00 662.33 53.00 656.00 53.00
C 578.47 53.00 522.19 103.60 474.00 160.00
M 781.00 97.00 
C 789.97 99.09 800.98 109.24 800.98 121.02 C 800.97 132.81 781.50 129.86 774.75 121.25 C 768.01 112.63 763.64 92.96 781.00 97.00 Z"/>
</g>
<g fill="None" fill-opacity="0.0" stroke="#28542B" stroke-opacity="1.00" stroke-width="0.3"><path d="
M 320.00 121.00 
C 321.05 122.71 324.58 124.87 326.00 126.00
C 328.25 127.79 331.14 127.75 333.00 129.00
C 331.31 122.76 333.42 103.94 339.00 99.00
C 339.11 98.03 340.17 96.39 341.00 96.00
C 340.72 97.28 341.76 99.50 340.00 100.00
C 339.27 109.41 338.13 118.93 341.00 128.00
C 342.33 128.00 343.67 128.00 345.00 128.00
C 347.44 126.84 353.57 123.32 356.07 125.93 C 358.58 128.53 363.73 128.21 366.23 130.77 C 368.72 133.34 365.73 139.22 366.00 142.00
C 366.45 142.80 366.94 143.89 368.00 144.00
C 369.32 139.86 371.65 135.73 375.00 133.00
C 369.17 142.95 374.07 153.56 375.00 164.00
C 378.37 174.12 389.47 184.72 386.00 196.00
C 383.72 186.08 379.39 176.73 374.00 168.00
C 372.57 169.05 371.77 171.10 372.00 173.00
C 374.08 177.27 377.55 182.07 378.00 187.00
C 379.50 190.37 382.43 193.70 382.00 198.00
C 380.50 197.86 380.28 192.98 379.00 195.00
C 379.41 196.07 379.39 198.09 380.00 199.00
C 380.11 199.16 381.89 200.92 382.00 201.00
C 393.23 202.69 403.30 202.51 414.00 201.00
C 413.71 200.53 413.82 197.54 414.00 197.00
C 414.29 196.79 411.75 198.00 411.00 199.00
C 411.56 197.40 411.50 194.97 413.00 194.00
C 416.98 182.21 423.78 170.37 430.00 160.00
C 429.99 158.65 428.61 154.76 428.00 153.00
C 421.81 165.16 413.00 177.64 409.00 191.00
C 408.43 192.90 408.32 194.99 408.00 197.00
C 406.57 195.97 406.31 191.96 408.00 191.00
C 410.78 171.52 430.21 153.91 419.00 133.00
C 424.77 137.25 425.93 145.06 428.00 151.00
C 431.83 136.38 453.24 131.08 452.00 114.00
C 446.79 116.44 440.20 117.01 435.00 114.00
C 433.96 106.44 423.96 102.40 422.98 94.02 C 421.99 85.65 414.49 78.85 415.00 70.00
C 405.64 71.32 397.65 67.27 389.00 66.00
C 386.16 77.79 375.98 63.74 369.00 65.00
C 374.74 54.23 365.08 54.99 357.02 56.02 C 348.97 57.05 343.20 61.42 335.00 59.00
C 330.89 63.30 329.74 70.47 325.70 74.70 C 321.65 78.92 317.82 82.45 314.75 87.75 C 311.68 93.05 313.95 98.82 312.34 105.32 C 310.72 111.83 318.57 114.95 320.00 121.00 Z"/>
</g>
<g fill="None" fill-opacity="0.0" stroke="#8DA579" stroke-opacity="1.00" stroke-width="0.3"><path d="
M 339.00 99.00 
C 339.11 98.91 339.93 99.65 340.00 100.00
C 341.76 99.50 340.72 97.28 341.00 96.00
C 340.17 96.39 339.11 98.03 339.00 99.00 Z"/>
</g>
<g fill="None" fill-opacity="0.0" stroke="#F7F7F7" stroke-opacity="1.00" stroke-width="0.3"><path d="
M 781.00 97.00 
C 763.64 92.96 768.01 112.63 774.75 121.25 C 781.50 129.86 800.97 132.81 800.98 121.02 C 800.98 109.24 789.97 99.09 781.00 97.00 Z"/>
</g>
<g fill="None" fill-opacity="0.0" stroke="#D7C397" stroke-opacity="1.00" stroke-width="0.3"><path d="
M 333.00 129.00 
C 339.60 153.37 370.54 167.74 378.00 192.00
C 377.87 190.35 378.15 188.65 378.00 187.00
C 377.55 182.07 374.08 177.27 372.00 173.00
C 371.87 172.73 371.03 172.35 371.00 172.00
C 366.64 168.72 363.77 161.82 359.75 158.25 C 355.73 154.68 351.60 147.79 348.75 144.25 C 345.90 140.70 340.24 129.96 343.00 129.00
C 343.96 128.67 344.28 128.34 345.00 128.00
C 343.67 128.00 342.33 128.00 341.00 128.00
C 338.13 118.93 339.27 109.41 340.00 100.00
C 339.93 99.65 339.11 98.91 339.00 99.00
C 333.42 103.94 331.31 122.76 333.00 129.00 Z"/>
</g>
<g fill="None" fill-opacity="0.0" stroke="#D9C498" stroke-opacity="1.00" stroke-width="0.3"><path d="
M 430.00 160.00 
C 423.78 170.37 416.98 182.21 413.00 194.00
C 413.04 194.35 413.65 194.92 414.00 195.00
C 415.12 194.01 419.54 187.78 420.00 187.00
C 419.45 182.99 423.61 178.01 427.00 175.00
C 427.36 174.39 430.36 170.99 431.00 170.00
C 436.91 158.58 445.21 151.16 453.25 140.25 C 461.29 129.33 463.28 113.58 456.00 101.00
C 457.07 112.57 452.12 125.87 447.99 135.99 C 443.87 146.11 435.29 151.18 430.00 160.00 Z"/>
</g>
<g fill="None" fill-opacity="0.0" stroke="#F4EEDC" stroke-opacity="1.00" stroke-width="0.3"><path d="
M 326.00 126.00 
C 324.58 124.87 321.05 122.71 320.00 121.00
C 317.96 134.17 321.21 151.02 333.32 157.68 C 345.43 164.34 349.69 174.36 361.00 182.00
C 358.77 174.74 354.34 167.69 348.23 162.77 C 342.12 157.85 339.12 150.49 332.30 146.70 C 325.47 142.92 327.70 130.01 326.00 126.00
M 323.00 128.00 
C 322.55 146.79 341.17 156.01 352.00 169.00
C 344.52 164.39 338.33 158.14 330.77 153.23 C 323.21 148.32 317.12 134.64 323.00 128.00 Z"/>
</g>
<g fill="None" fill-opacity="0.0" stroke="#F0EED9" stroke-opacity="1.00" stroke-width="0.3"><path d="
M 471.00 124.00 
C 471.13 129.90 475.36 140.38 470.08 146.08 C 464.79 151.77 461.20 155.27 455.25 159.25 C 449.31 163.24 445.64 168.22 441.00 173.00
C 444.03 171.16 447.75 169.50 450.00 167.00
C 452.64 170.59 449.47 174.39 449.00 178.00
C 455.44 174.77 465.93 169.95 467.00 160.00
C 468.75 160.83 467.66 163.44 468.00 165.00
C 469.72 163.28 471.59 162.01 473.00 160.00
C 468.84 162.74 469.88 157.66 467.00 157.00
C 464.30 163.33 459.11 171.36 452.00 176.00
C 454.44 172.14 451.52 167.99 449.00 165.00
C 456.14 160.26 463.85 153.99 469.25 148.25 C 474.64 142.51 472.74 141.15 474.00 135.00 C 475.26 128.85 470.97 122.57 471.00 124.00 Z"/>
</g>
<g fill="None" fill-opacity="0.0" stroke="#D7C5A3" stroke-opacity="1.00" stroke-width="0.3"><path d="
M 437.00 176.00 
C 437.40 175.00 440.28 173.74 441.00 173.00
C 445.64 168.22 449.31 163.24 455.25 159.25 C 461.20 155.27 464.79 151.77 470.08 146.08 C 475.36 140.38 471.13 129.90 471.00 124.00
C 469.10 130.89 470.20 141.32 464.75 146.75 C 459.30 152.19 454.48 156.20 449.75 160.75 C 445.02 165.30 437.63 169.80 437.00 176.00 Z"/>
</g>
<g fill="None" fill-opacity="0.0" stroke="#F8FAF5" stroke-opacity="1.00" stroke-width="0.3"><path d="
M 345.00 128.00 
C 344.28 128.34 343.96 128.67 343.00 129.00
C 341.64 132.15 348.81 140.37 350.77 144.23 C 352.73 148.09 357.92 153.23 360.75 157.25 C 363.59 161.26 367.56 167.48 371.00 171.00
C 371.14 169.51 372.05 168.13 373.00 167.00
C 373.11 163.00 365.72 160.52 367.00 156.00 C 368.28 151.47 366.29 144.93 366.00 142.00
C 365.73 139.22 368.72 133.34 366.23 130.77 C 363.73 128.21 358.58 128.53 356.07 125.93 C 353.57 123.32 347.44 126.84 345.00 128.00 Z"/>
</g>
<g fill="None" fill-opacity="0.0" stroke="#D8C69F" stroke-opacity="1.00" stroke-width="0.3"><path d="
M 323.00 128.00 
C 317.12 134.64 323.21 148.32 330.77 153.23 C 338.33 158.14 344.52 164.39 352.00 169.00
C 341.17 156.01 322.55 146.79 323.00 128.00 Z"/>
</g>
<g fill="None" fill-opacity="0.0" stroke="#F5E5C9" stroke-opacity="1.00" stroke-width="0.3"><path d="
M 371.00 172.00 
C 370.95 171.50 371.00 171.00 371.00 171.00
C 367.56 167.48 363.59 161.26 360.75 157.25 C 357.92 153.23 352.73 148.09 350.77 144.23 C 348.81 140.37 341.64 132.15 343.00 129.00
C 340.24 129.96 345.90 140.70 348.75 144.25 C 351.60 147.79 355.73 154.68 359.75 158.25 C 363.77 161.82 366.64 168.72 371.00 172.00 Z"/>
</g>
<g fill="None" fill-opacity="0.0" stroke="#D4C9A1" stroke-opacity="1.00" stroke-width="0.3"><path d="
M 366.00 142.00 
C 366.29 144.93 368.28 151.47 367.00 156.00 C 365.72 160.52 373.11 163.00 373.00 167.00
C 374.24 165.53 374.59 166.85 375.00 164.00
C 374.07 153.56 369.17 142.95 375.00 133.00
C 371.65 135.73 369.32 139.86 368.00 144.00
C 366.94 143.89 366.45 142.80 366.00 142.00 Z"/>
</g>
<g fill="None" fill-opacity="0.0" stroke="#BAB482" stroke-opacity="1.00" stroke-width="0.3"><path d="
M 408.00 191.00 
C 408.26 190.75 409.00 191.00 409.00 191.00
C 413.00 177.64 421.81 165.16 428.00 153.00
C 427.85 152.55 427.96 151.50 428.00 151.00
C 425.93 145.06 424.77 137.25 419.00 133.00
C 430.21 153.91 410.78 171.52 408.00 191.00 Z"/>
</g>
<g fill="None" fill-opacity="0.0" stroke="#F9F4DF" stroke-opacity="1.00" stroke-width="0.3"><path d="
M 326.00 163.00 
C 326.00 162.00 325.60 160.27 327.00 160.00
C 329.62 169.53 337.80 176.93 347.00 180.00
C 335.37 175.82 333.95 161.98 325.00 156.00
C 324.28 158.48 325.55 161.17 326.00 163.00 Z"/>
</g>
<g fill="None" fill-opacity="0.0" stroke="#DAC9A7" stroke-opacity="1.00" stroke-width="0.3"><path d="
M 326.00 163.00 
C 328.90 174.70 333.63 179.26 345.00 183.00
C 349.46 184.47 356.49 186.01 360.22 188.78 C 363.96 191.54 372.85 192.25 372.00 192.00
C 364.46 187.08 355.14 183.43 347.00 180.00
C 337.80 176.93 329.62 169.53 327.00 160.00
C 325.60 160.27 326.00 162.00 326.00 163.00 Z"/>
</g>
<g fill="None" fill-opacity="0.0" stroke="#CCC7A8" stroke-opacity="1.00" stroke-width="0.3"><path d="
M 449.00 178.00 
C 444.91 180.05 441.61 182.28 437.00 184.00
C 431.73 185.97 426.18 189.63 421.00 192.00
C 419.53 192.67 418.44 193.39 417.00 194.00
C 415.95 194.80 415.15 196.18 414.00 197.00
C 413.82 197.54 413.71 200.53 414.00 201.00
C 414.49 200.93 415.00 201.00 415.00 201.00
C 415.35 200.97 415.76 200.06 416.00 200.00
C 415.06 195.30 433.04 190.16 437.00 188.00
C 437.23 189.83 436.93 191.47 436.00 193.00
C 436.94 192.40 437.52 192.13 438.00 191.00
C 438.48 189.87 437.63 188.17 438.00 187.00
C 441.88 186.70 444.88 183.45 449.00 184.00
C 450.36 182.54 452.52 181.26 454.00 180.00
C 458.75 175.25 463.30 169.70 468.00 165.00
C 467.66 163.44 468.75 160.83 467.00 160.00
C 465.93 169.95 455.44 174.77 449.00 178.00 Z"/>
</g>
<g fill="None" fill-opacity="0.0" stroke="#847C6A" stroke-opacity="1.00" stroke-width="0.3"><path d="
M 468.00 165.00 
C 463.30 169.70 458.75 175.25 454.00 180.00
C 459.09 175.65 464.32 170.68 469.00 166.00
C 470.71 164.29 472.38 161.90 474.00 160.00
C 474.00 160.00 473.44 159.83 473.00 160.00
C 471.59 162.01 469.72 163.28 468.00 165.00 Z"/>
</g>
<g fill="None" fill-opacity="0.0" stroke="#AFB485" stroke-opacity="1.00" stroke-width="0.3"><path d="
M 373.00 167.00 
C 372.05 168.13 371.14 169.51 371.00 171.00
C 371.00 171.00 370.95 171.50 371.00 172.00
C 371.03 172.35 371.87 172.73 372.00 173.00
C 371.77 171.10 372.57 169.05 374.00 168.00
C 379.39 176.73 383.72 186.08 386.00 196.00
C 389.47 184.72 378.37 174.12 375.00 164.00
C 374.59 166.85 374.24 165.53 373.00 167.00 Z"/>
</g>
<g fill="None" fill-opacity="0.0" stroke="#352D1F" stroke-opacity="1.00" stroke-width="0.3"><path d="
M 454.00 180.00 
C 452.52 181.26 450.36 182.54 449.00 184.00
C 448.59 184.44 448.37 185.67 448.00 186.00
C 457.51 184.27 459.85 174.13 468.00 172.00
C 470.07 170.65 468.58 167.05 469.00 166.00
C 464.32 170.68 459.09 175.65 454.00 180.00 Z"/>
</g>
<g fill="None" fill-opacity="0.0" stroke="#35552F" stroke-opacity="1.00" stroke-width="0.3"><path d="
M 441.00 173.00 
C 440.28 173.74 437.40 175.00 437.00 176.00
C 436.68 179.12 439.01 180.97 437.00 184.00
C 441.61 182.28 444.91 180.05 449.00 178.00
C 449.47 174.39 452.64 170.59 450.00 167.00
C 447.75 169.50 444.03 171.16 441.00 173.00 Z"/>
</g>
<g fill="None" fill-opacity="0.0" stroke="#52593B" stroke-opacity="1.00" stroke-width="0.3"><path d="
M 427.00 175.00 
C 429.58 172.71 429.73 173.72 431.00 170.00
C 430.36 170.99 427.36 174.39 427.00 175.00 Z"/>
</g>
<g fill="None" fill-opacity="0.0" stroke="#F6EEE0" stroke-opacity="1.00" stroke-width="0.3"><path d="
M 372.00 192.00 
C 372.85 192.25 363.96 191.54 360.22 188.78 C 356.49 186.01 349.46 184.47 345.00 183.00
C 351.97 190.77 364.99 189.72 371.00 198.00
C 373.47 197.10 375.58 196.97 378.00 198.00
C 376.55 195.72 374.32 193.51 372.00 192.00 Z"/>
</g>
<g fill="None" fill-opacity="0.0" stroke="#38482D" stroke-opacity="1.00" stroke-width="0.3"><path d="
M 438.00 191.00 
C 440.00 191.00 442.00 191.00 444.00 191.00
C 443.54 187.91 446.38 187.46 448.00 186.00
C 448.37 185.67 448.59 184.44 449.00 184.00
C 444.88 183.45 441.88 186.70 438.00 187.00
C 437.63 188.17 438.48 189.87 438.00 191.00 Z"/>
</g>
<g fill="None" fill-opacity="0.0" stroke="#9FAC84" stroke-opacity="1.00" stroke-width="0.3"><path d="
M 378.00 192.00 
C 378.12 193.50 378.62 193.99 379.00 195.00
C 380.28 192.98 380.50 197.86 382.00 198.00
C 382.43 193.70 379.50 190.37 378.00 187.00
C 378.15 188.65 377.87 190.35 378.00 192.00 Z"/>
</g>
<g fill="None" fill-opacity="0.0" stroke="#475733" stroke-opacity="1.00" stroke-width="0.3"><path d="
M 414.00 195.00 
C 415.09 195.26 416.07 194.39 417.00 194.00
C 418.44 193.39 419.53 192.67 421.00 192.00
C 421.59 190.40 420.20 188.48 420.00 187.00
C 419.54 187.78 415.12 194.01 414.00 195.00 Z"/>
</g>
<g fill="None" fill-opacity="0.0" stroke="#F3F2E8" stroke-opacity="1.00" stroke-width="0.3"><path d="
M 416.00 200.00 
C 422.86 198.21 429.84 196.93 436.00 193.00
C 436.93 191.47 437.23 189.83 437.00 188.00
C 433.04 190.16 415.06 195.30 416.00 200.00 Z"/>
</g>
<g fill="None" fill-opacity="0.0" stroke="#819F72" stroke-opacity="1.00" stroke-width="0.3"><path d="
M 409.00 191.00 
C 409.00 191.00 408.26 190.75 408.00 191.00
C 406.31 191.96 406.57 195.97 408.00 197.00
C 408.32 194.99 408.43 192.90 409.00 191.00 Z"/>
</g>
<g fill="None" fill-opacity="0.0" stroke="#768C66" stroke-opacity="1.00" stroke-width="0.3"><path d="
M 414.00 197.00 
C 415.15 196.18 415.95 194.80 417.00 194.00
C 416.07 194.39 415.09 195.26 414.00 195.00
C 413.65 194.92 413.04 194.35 413.00 194.00
C 411.50 194.97 411.56 197.40 411.00 199.00
C 411.75 198.00 414.29 196.79 414.00 197.00 Z"/>
</g>
<g fill="None" fill-opacity="0.0" stroke="#96A293" stroke-opacity="1.00" stroke-width="0.3"><path d="
M 378.00 200.00 
C 378.21 200.04 378.73 200.76 379.00 201.00
C 379.97 201.16 381.02 200.85 382.00 201.00
C 381.89 200.92 380.11 199.16 380.00 199.00
C 380.02 199.00 378.49 199.94 378.00 200.00 Z"/>
</g>
<g fill="None" fill-opacity="0.0" stroke="#222C23" stroke-opacity="1.00" stroke-width="0.3"><path d="
M 415.00 201.00 
C 415.00 201.00 414.49 200.93 414.00 201.00
C 403.30 202.51 393.23 202.69 382.00 201.00
C 381.02 200.85 379.97 201.16 379.00 201.00
C 386.29 207.29 409.35 207.60 415.00 201.00 Z"/>
</g>
<g fill="None" fill-opacity="0.0" stroke="#878787" stroke-opacity="1.00" stroke-width="0.3"><path d="
M 458.00 240.00 
C 462.58 236.09 467.04 231.63 471.00 227.00
C 466.80 231.20 462.25 235.75 458.00 240.00 Z"/>
</g>
<g fill="None" fill-opacity="0.0" stroke="#888888" stroke-opacity="1.00" stroke-width="0.3"><path d="
M 333.00 240.00 
C 331.45 238.45 329.59 236.59 328.00 235.00
C 329.56 236.82 331.13 238.40 333.00 240.00 Z"/>
</g>
<g fill="None" fill-opacity="0.0" stroke="#5F5F5F" stroke-opacity="1.00" stroke-width="0.3"><path d="
M 388.00 267.00 
L 402.00 267.00
C 402.00 267.00 402.02 266.00 402.00 266.00
C 397.35 266.18 392.65 266.00 388.00 266.00
C 388.00 266.00 388.00 266.50 388.00 267.00 Z"/>
</g>
<g fill="#FEFEFE" fill-opacity="1.00" stroke="None">
<path d="
M 0.00 267.00 
L 388.00 267.00
C 388.00 266.50 388.00 266.00 388.00 266.00
C 366.47 266.00 348.80 253.50 333.00 240.00
C 331.13 238.40 329.56 236.82 328.00 235.00
C 322.41 228.46 316.54 220.98 311.70 214.30 C 306.85 207.62 301.50 196.77 297.69 190.31 C 293.89 183.84 285.58 165.22 295.68 168.32 C 305.77 171.43 311.18 177.47 320.70 181.31 C 330.21 185.14 338.32 188.48 348.02 191.98 C 357.73 195.48 367.61 198.28 378.00 200.00
C 378.49 199.94 380.02 199.00 380.00 199.00
C 379.39 198.09 379.41 196.07 379.00 195.00
C 378.62 193.99 378.12 193.50 378.00 192.00
C 370.54 167.74 339.60 153.37 333.00 129.00
C 331.14 127.75 328.25 127.79 326.00 126.00
C 327.70 130.01 325.47 142.92 332.30 146.70 C 339.12 150.49 342.12 157.85 348.23 162.77 C 354.34 167.69 358.77 174.74 361.00 182.00
C 349.69 174.36 345.43 164.34 333.32 157.68 C 321.21 151.02 317.96 134.17 320.00 121.00
C 318.57 114.95 310.72 111.83 312.34 105.32 C 313.95 98.82 311.68 93.05 314.75 87.75 C 317.82 82.45 321.65 78.92 325.70 74.70 C 329.74 70.47 330.89 63.30 335.00 59.00
C 343.20 61.42 348.97 57.05 357.02 56.02 C 365.08 54.99 374.74 54.23 369.00 65.00
C 375.98 63.74 386.16 77.79 389.00 66.00
C 397.65 67.27 405.64 71.32 415.00 70.00
C 414.49 78.85 421.99 85.65 422.98 94.02 C 423.96 102.40 433.96 106.44 435.00 114.00
C 440.20 117.01 446.79 116.44 452.00 114.00
C 453.24 131.08 431.83 136.38 428.00 151.00
C 427.96 151.50 427.85 152.55 428.00 153.00
C 428.61 154.76 429.99 158.65 430.00 160.00
C 435.29 151.18 443.87 146.11 447.99 135.99 C 452.12 125.87 457.07 112.57 456.00 101.00
C 463.28 113.58 461.29 129.33 453.25 140.25 C 445.21 151.16 436.91 158.58 431.00 170.00
C 429.73 173.72 429.58 172.71 427.00 175.00
C 423.61 178.01 419.45 182.99 420.00 187.00
C 420.20 188.48 421.59 190.40 421.00 192.00
C 426.18 189.63 431.73 185.97 437.00 184.00
C 439.01 180.97 436.68 179.12 437.00 176.00
C 437.63 169.80 445.02 165.30 449.75 160.75 C 454.48 156.20 459.30 152.19 464.75 146.75 C 470.20 141.32 469.10 130.89 471.00 124.00
C 470.97 122.57 475.26 128.85 474.00 135.00 C 472.74 141.15 474.64 142.51 469.25 148.25 C 463.85 153.99 456.14 160.26 449.00 165.00
C 451.52 167.99 454.44 172.14 452.00 176.00
C 459.11 171.36 464.30 163.33 467.00 157.00
C 469.88 157.66 468.84 162.74 473.00 160.00
C 473.44 159.83 474.00 160.00 474.00 160.00
C 522.19 103.60 578.47 53.00 656.00 53.00
C 661.98 52.42 669.09 52.43 675.00 53.00
C 697.68 53.00 721.46 59.49 742.02 65.98 C 762.59 72.46 776.11 84.62 794.08 94.92 C 812.05 105.22 818.28 139.44 794.78 141.78 C 771.28 144.12 763.98 120.27 747.25 108.75 C 730.51 97.23 717.54 85.17 698.31 76.69 C 679.07 68.22 653.61 62.59 631.98 64.98 C 610.34 67.36 590.40 75.32 573.25 87.25 C 556.11 99.19 545.16 110.78 532.70 126.70 C 520.23 142.61 510.35 158.98 502.08 177.08 C 493.80 195.17 483.99 211.80 471.00 227.00
C 467.04 231.63 462.58 236.09 458.00 240.00
C 442.29 253.43 423.02 265.20 402.00 266.00
C 402.02 266.00 402.00 267.00 402.00 267.00
L 1115.00 267.00
L 1115.00 0.00
L 0.00 0.00
L 0.00 267.00
M 347.00 180.00 
C 355.14 183.43 364.46 187.08 372.00 192.00
C 374.32 193.51 376.55 195.72 378.00 198.00
C 375.58 196.97 373.47 197.10 371.00 198.00
C 364.99 189.72 351.97 190.77 345.00 183.00
C 333.63 179.26 328.90 174.70 326.00 163.00
C 325.55 161.17 324.28 158.48 325.00 156.00
C 333.95 161.98 335.37 175.82 347.00 180.00 Z"/>
</g>
<g fill="#9B9B9B" fill-opacity="1.00" stroke="None">
<path d="
M 656.00 53.00 
C 662.33 53.00 668.67 53.00 675.00 53.00
C 669.09 52.43 661.98 52.42 656.00 53.00 Z"/>
</g>
<g fill="#2A2A2A" fill-opacity="1.00" stroke="None">
<path d="
M 474.00 160.00 
C 472.38 161.90 470.71 164.29 469.00 166.00
C 468.58 167.05 470.07 170.65 468.00 172.00
C 459.85 174.13 457.51 184.27 448.00 186.00
C 446.38 187.46 443.54 187.91 444.00 191.00
C 442.00 191.00 440.00 191.00 438.00 191.00
C 437.52 192.13 436.94 192.40 436.00 193.00
C 429.84 196.93 422.86 198.21 416.00 200.00
C 415.76 200.06 415.35 200.97 415.00 201.00
C 409.35 207.60 386.29 207.29 379.00 201.00
C 378.73 200.76 378.21 200.04 378.00 200.00
C 367.61 198.28 357.73 195.48 348.02 191.98 C 338.32 188.48 330.21 185.14 320.70 181.31 C 311.18 177.47 305.77 171.43 295.68 168.32 C 285.58 165.22 293.89 183.84 297.69 190.31 C 301.50 196.77 306.85 207.62 311.70 214.30 C 316.54 220.98 322.41 228.46 328.00 235.00
C 329.59 236.59 331.45 238.45 333.00 240.00
C 348.80 253.50 366.47 266.00 388.00 266.00
C 392.65 266.00 397.35 266.18 402.00 266.00
C 423.02 265.20 442.29 253.43 458.00 240.00
C 462.25 235.75 466.80 231.20 471.00 227.00
C 483.99 211.80 493.80 195.17 502.08 177.08 C 510.35 158.98 520.23 142.61 532.70 126.70 C 545.16 110.78 556.11 99.19 573.25 87.25 C 590.40 75.32 610.34 67.36 631.98 64.98 C 653.61 62.59 679.07 68.22 698.31 76.69 C 717.54 85.17 730.51 97.23 747.25 108.75 C 763.98 120.27 771.28 144.12 794.78 141.78 C 818.28 139.44 812.05 105.22 794.08 94.92 C 776.11 84.62 762.59 72.46 742.02 65.98 C 721.46 59.49 697.68 53.00 675.00 53.00
C 668.67 53.00 662.33 53.00 656.00 53.00
C 578.47 53.00 522.19 103.60 474.00 160.00
M 781.00 97.00 
C 789.97 99.09 800.98 109.24 800.98 121.02 C 800.97 132.81 781.50 129.86 774.75 121.25 C 768.01 112.63 763.64 92.96 781.00 97.00 Z"/>
</g>
<g fill="#28542B" fill-opacity="1.00" stroke="None">
<path d="
M 320.00 121.00 
C 321.05 122.71 324.58 124.87 326.00 126.00
C 328.25 127.79 331.14 127.75 333.00 129.00
C 331.31 122.76 333.42 103.94 339.00 99.00
C 339.11 98.03 340.17 96.39 341.00 96.00
C 340.72 97.28 341.76 99.50 340.00 100.00
C 339.27 109.41 338.13 118.93 341.00 128.00
C 342.33 128.00 343.67 128.00 345.00 128.00
C 347.44 126.84 353.57 123.32 356.07 125.93 C 358.58 128.53 363.73 128.21 366.23 130.77 C 368.72 133.34 365.73 139.22 366.00 142.00
C 366.45 142.80 366.94 143.89 368.00 144.00
C 369.32 139.86 371.65 135.73 375.00 133.00
C 369.17 142.95 374.07 153.56 375.00 164.00
C 378.37 174.12 389.47 184.72 386.00 196.00
C 383.72 186.08 379.39 176.73 374.00 168.00
C 372.57 169.05 371.77 171.10 372.00 173.00
C 374.08 177.27 377.55 182.07 378.00 187.00
C 379.50 190.37 382.43 193.70 382.00 198.00
C 380.50 197.86 380.28 192.98 379.00 195.00
C 379.41 196.07 379.39 198.09 380.00 199.00
C 380.11 199.16 381.89 200.92 382.00 201.00
C 393.23 202.69 403.30 202.51 414.00 201.00
C 413.71 200.53 413.82 197.54 414.00 197.00
C 414.29 196.79 411.75 198.00 411.00 199.00
C 411.56 197.40 411.50 194.97 413.00 194.00
C 416.98 182.21 423.78 170.37 430.00 160.00
C 429.99 158.65 428.61 154.76 428.00 153.00
C 421.81 165.16 413.00 177.64 409.00 191.00
C 408.43 192.90 408.32 194.99 408.00 197.00
C 406.57 195.97 406.31 191.96 408.00 191.00
C 410.78 171.52 430.21 153.91 419.00 133.00
C 424.77 137.25 425.93 145.06 428.00 151.00
C 431.83 136.38 453.24 131.08 452.00 114.00
C 446.79 116.44 440.20 117.01 435.00 114.00
C 433.96 106.44 423.96 102.40 422.98 94.02 C 421.99 85.65 414.49 78.85 415.00 70.00
C 405.64 71.32 397.65 67.27 389.00 66.00
C 386.16 77.79 375.98 63.74 369.00 65.00
C 374.74 54.23 365.08 54.99 357.02 56.02 C 348.97 57.05 343.20 61.42 335.00 59.00
C 330.89 63.30 329.74 70.47 325.70 74.70 C 321.65 78.92 317.82 82.45 314.75 87.75 C 311.68 93.05 313.95 98.82 312.34 105.32 C 310.72 111.83 318.57 114.95 320.00 121.00 Z"/>
</g>
<g fill="#8DA579" fill-opacity="1.00" stroke="None">
<path d="
M 339.00 99.00 
C 339.11 98.91 339.93 99.65 340.00 100.00
C 341.76 99.50 340.72 97.28 341.00 96.00
C 340.17 96.39 339.11 98.03 339.00 99.00 Z"/>
</g>
<g fill="#F7F7F7" fill-opacity="1.00" stroke="None">
<path d="
M 781.00 97.00 
C 763.64 92.96 768.01 112.63 774.75 121.25 C 781.50 129.86 800.97 132.81 800.98 121.02 C 800.98 109.24 789.97 99.09 781.00 97.00 Z"/>
</g>
<g fill="#D7C397" fill-opacity="1.00" stroke="None">
<path d="
M 333.00 129.00 
C 339.60 153.37 370.54 167.74 378.00 192.00
C 377.87 190.35 378.15 188.65 378.00 187.00
C 377.55 182.07 374.08 177.27 372.00 173.00
C 371.87 172.73 371.03 172.35 371.00 172.00
C 366.64 168.72 363.77 161.82 359.75 158.25 C 355.73 154.68 351.60 147.79 348.75 144.25 C 345.90 140.70 340.24 129.96 343.00 129.00
C 343.96 128.67 344.28 128.34 345.00 128.00
C 343.67 128.00 342.33 128.00 341.00 128.00
C 338.13 118.93 339.27 109.41 340.00 100.00
C 339.93 99.65 339.11 98.91 339.00 99.00
C 333.42 103.94 331.31 122.76 333.00 129.00 Z"/>
</g>
<g fill="#D9C498" fill-opacity="1.00" stroke="None">
<path d="
M 430.00 160.00 
C 423.78 170.37 416.98 182.21 413.00 194.00
C 413.04 194.35 413.65 194.92 414.00 195.00
C 415.12 194.01 419.54 187.78 420.00 187.00
C 419.45 182.99 423.61 178.01 427.00 175.00
C 427.36 174.39 430.36 170.99 431.00 170.00
C 436.91 158.58 445.21 151.16 453.25 140.25 C 461.29 129.33 463.28 113.58 456.00 101.00
C 457.07 112.57 452.12 125.87 447.99 135.99 C 443.87 146.11 435.29 151.18 430.00 160.00 Z"/>
</g>
<g fill="#F4EEDC" fill-opacity="1.00" stroke="None">
<path d="
M 326.00 126.00 
C 324.58 124.87 321.05 122.71 320.00 121.00
C 317.96 134.17 321.21 151.02 333.32 157.68 C 345.43 164.34 349.69 174.36 361.00 182.00
C 358.77 174.74 354.34 167.69 348.23 162.77 C 342.12 157.85 339.12 150.49 332.30 146.70 C 325.47 142.92 327.70 130.01 326.00 126.00
M 323.00 128.00 
C 322.55 146.79 341.17 156.01 352.00 169.00
C 344.52 164.39 338.33 158.14 330.77 153.23 C 323.21 148.32 317.12 134.64 323.00 128.00 Z"/>
</g>
<g fill="#F0EED9" fill-opacity="1.00" stroke="None">
<path d="
M 471.00 124.00 
C 471.13 129.90 475.36 140.38 470.08 146.08 C 464.79 151.77 461.20 155.27 455.25 159.25 C 449.31 163.24 445.64 168.22 441.00 173.00
C 444.03 171.16 447.75 169.50 450.00 167.00
C 452.64 170.59 449.47 174.39 449.00 178.00
C 455.44 174.77 465.93 169.95 467.00 160.00
C 468.75 160.83 467.66 163.44 468.00 165.00
C 469.72 163.28 471.59 162.01 473.00 160.00
C 468.84 162.74 469.88 157.66 467.00 157.00
C 464.30 163.33 459.11 171.36 452.00 176.00
C 454.44 172.14 451.52 167.99 449.00 165.00
C 456.14 160.26 463.85 153.99 469.25 148.25 C 474.64 142.51 472.74 141.15 474.00 135.00 C 475.26 128.85 470.97 122.57 471.00 124.00 Z"/>
</g>
<g fill="#D7C5A3" fill-opacity="1.00" stroke="None">
<path d="
M 437.00 176.00 
C 437.40 175.00 440.28 173.74 441.00 173.00
C 445.64 168.22 449.31 163.24 455.25 159.25 C 461.20 155.27 464.79 151.77 470.08 146.08 C 475.36 140.38 471.13 129.90 471.00 124.00
C 469.10 130.89 470.20 141.32 464.75 146.75 C 459.30 152.19 454.48 156.20 449.75 160.75 C 445.02 165.30 437.63 169.80 437.00 176.00 Z"/>
</g>
<g fill="#F8FAF5" fill-opacity="1.00" stroke="None">
<path d="
M 345.00 128.00 
C 344.28 128.34 343.96 128.67 343.00 129.00
C 341.64 132.15 348.81 140.37 350.77 144.23 C 352.73 148.09 357.92 153.23 360.75 157.25 C 363.59 161.26 367.56 167.48 371.00 171.00
C 371.14 169.51 372.05 168.13 373.00 167.00
C 373.11 163.00 365.72 160.52 367.00 156.00 C 368.28 151.47 366.29 144.93 366.00 142.00
C 365.73 139.22 368.72 133.34 366.23 130.77 C 363.73 128.21 358.58 128.53 356.07 125.93 C 353.57 123.32 347.44 126.84 345.00 128.00 Z"/>
</g>
<g fill="#D8C69F" fill-opacity="1.00" stroke="None">
<path d="
M 323.00 128.00 
C 317.12 134.64 323.21 148.32 330.77 153.23 C 338.33 158.14 344.52 164.39 352.00 169.00
C 341.17 156.01 322.55 146.79 323.00 128.00 Z"/>
</g>
<g fill="#F5E5C9" fill-opacity="1.00" stroke="None">
<path d="
M 371.00 172.00 
C 370.95 171.50 371.00 171.00 371.00 171.00
C 367.56 167.48 363.59 161.26 360.75 157.25 C 357.92 153.23 352.73 148.09 350.77 144.23 C 348.81 140.37 341.64 132.15 343.00 129.00
C 340.24 129.96 345.90 140.70 348.75 144.25 C 351.60 147.79 355.73 154.68 359.75 158.25 C 363.77 161.82 366.64 168.72 371.00 172.00 Z"/>
</g>
<g fill="#D4C9A1" fill-opacity="1.00" stroke="None">
<path d="
M 366.00 142.00 
C 366.29 144.93 368.28 151.47 367.00 156.00 C 365.72 160.52 373.11 163.00 373.00 167.00
C 374.24 165.53 374.59 166.85 375.00 164.00
C 374.07 153.56 369.17 142.95 375.00 133.00
C 371.65 135.73 369.32 139.86 368.00 144.00
C 366.94 143.89 366.45 142.80 366.00 142.00 Z"/>
</g>
<g fill="#BAB482" fill-opacity="1.00" stroke="None">
<path d="
M 408.00 191.00 
C 408.26 190.75 409.00 191.00 409.00 191.00
C 413.00 177.64 421.81 165.16 428.00 153.00
C 427.85 152.55 427.96 151.50 428.00 151.00
C 425.93 145.06 424.77 137.25 419.00 133.00
C 430.21 153.91 410.78 171.52 408.00 191.00 Z"/>
</g>
<g fill="#F9F4DF" fill-opacity="1.00" stroke="None">
<path d="
M 326.00 163.00 
C 326.00 162.00 325.60 160.27 327.00 160.00
C 329.62 169.53 337.80 176.93 347.00 180.00
C 335.37 175.82 333.95 161.98 325.00 156.00
C 324.28 158.48 325.55 161.17 326.00 163.00 Z"/>
</g>
<g fill="#DAC9A7" fill-opacity="1.00" stroke="None">
<path d="
M 326.00 163.00 
C 328.90 174.70 333.63 179.26 345.00 183.00
C 349.46 184.47 356.49 186.01 360.22 188.78 C 363.96 191.54 372.85 192.25 372.00 192.00
C 364.46 187.08 355.14 183.43 347.00 180.00
C 337.80 176.93 329.62 169.53 327.00 160.00
C 325.60 160.27 326.00 162.00 326.00 163.00 Z"/>
</g>
<g fill="#CCC7A8" fill-opacity="1.00" stroke="None">
<path d="
M 449.00 178.00 
C 444.91 180.05 441.61 182.28 437.00 184.00
C 431.73 185.97 426.18 189.63 421.00 192.00
C 419.53 192.67 418.44 193.39 417.00 194.00
C 415.95 194.80 415.15 196.18 414.00 197.00
C 413.82 197.54 413.71 200.53 414.00 201.00
C 414.49 200.93 415.00 201.00 415.00 201.00
C 415.35 200.97 415.76 200.06 416.00 200.00
C 415.06 195.30 433.04 190.16 437.00 188.00
C 437.23 189.83 436.93 191.47 436.00 193.00
C 436.94 192.40 437.52 192.13 438.00 191.00
C 438.48 189.87 437.63 188.17 438.00 187.00
C 441.88 186.70 444.88 183.45 449.00 184.00
C 450.36 182.54 452.52 181.26 454.00 180.00
C 458.75 175.25 463.30 169.70 468.00 165.00
C 467.66 163.44 468.75 160.83 467.00 160.00
C 465.93 169.95 455.44 174.77 449.00 178.00 Z"/>
</g>
<g fill="#847C6A" fill-opacity="1.00" stroke="None">
<path d="
M 468.00 165.00 
C 463.30 169.70 458.75 175.25 454.00 180.00
C 459.09 175.65 464.32 170.68 469.00 166.00
C 470.71 164.29 472.38 161.90 474.00 160.00
C 474.00 160.00 473.44 159.83 473.00 160.00
C 471.59 162.01 469.72 163.28 468.00 165.00 Z"/>
</g>
<g fill="#AFB485" fill-opacity="1.00" stroke="None">
<path d="
M 373.00 167.00 
C 372.05 168.13 371.14 169.51 371.00 171.00
C 371.00 171.00 370.95 171.50 371.00 172.00
C 371.03 172.35 371.87 172.73 372.00 173.00
C 371.77 171.10 372.57 169.05 374.00 168.00
C 379.39 176.73 383.72 186.08 386.00 196.00
C 389.47 184.72 378.37 174.12 375.00 164.00
C 374.59 166.85 374.24 165.53 373.00 167.00 Z"/>
</g>
<g fill="#352D1F" fill-opacity="1.00" stroke="None">
<path d="
M 454.00 180.00 
C 452.52 181.26 450.36 182.54 449.00 184.00
C 448.59 184.44 448.37 185.67 448.00 186.00
C 457.51 184.27 459.85 174.13 468.00 172.00
C 470.07 170.65 468.58 167.05 469.00 166.00
C 464.32 170.68 459.09 175.65 454.00 180.00 Z"/>
</g>
<g fill="#35552F" fill-opacity="1.00" stroke="None">
<path d="
M 441.00 173.00 
C 440.28 173.74 437.40 175.00 437.00 176.00
C 436.68 179.12 439.01 180.97 437.00 184.00
C 441.61 182.28 444.91 180.05 449.00 178.00
C 449.47 174.39 452.64 170.59 450.00 167.00
C 447.75 169.50 444.03 171.16 441.00 173.00 Z"/>
</g>
<g fill="#52593B" fill-opacity="1.00" stroke="None">
<path d="
M 427.00 175.00 
C 429.58 172.71 429.73 173.72 431.00 170.00
C 430.36 170.99 427.36 174.39 427.00 175.00 Z"/>
</g>
<g fill="#F6EEE0" fill-opacity="1.00" stroke="None">
<path d="
M 372.00 192.00 
C 372.85 192.25 363.96 191.54 360.22 188.78 C 356.49 186.01 349.46 184.47 345.00 183.00
C 351.97 190.77 364.99 189.72 371.00 198.00
C 373.47 197.10 375.58 196.97 378.00 198.00
C 376.55 195.72 374.32 193.51 372.00 192.00 Z"/>
</g>
<g fill="#38482D" fill-opacity="1.00" stroke="None">
<path d="
M 438.00 191.00 
C 440.00 191.00 442.00 191.00 444.00 191.00
C 443.54 187.91 446.38 187.46 448.00 186.00
C 448.37 185.67 448.59 184.44 449.00 184.00
C 444.88 183.45 441.88 186.70 438.00 187.00
C 437.63 188.17 438.48 189.87 438.00 191.00 Z"/>
</g>
<g fill="#9FAC84" fill-opacity="1.00" stroke="None">
<path d="
M 378.00 192.00 
C 378.12 193.50 378.62 193.99 379.00 195.00
C 380.28 192.98 380.50 197.86 382.00 198.00
C 382.43 193.70 379.50 190.37 378.00 187.00
C 378.15 188.65 377.87 190.35 378.00 192.00 Z"/>
</g>
<g fill="#475733" fill-opacity="1.00" stroke="None">
<path d="
M 414.00 195.00 
C 415.09 195.26 416.07 194.39 417.00 194.00
C 418.44 193.39 419.53 192.67 421.00 192.00
C 421.59 190.40 420.20 188.48 420.00 187.00
C 419.54 187.78 415.12 194.01 414.00 195.00 Z"/>
</g>
<g fill="#F3F2E8" fill-opacity="1.00" stroke="None">
<path d="
M 416.00 200.00 
C 422.86 198.21 429.84 196.93 436.00 193.00
C 436.93 191.47 437.23 189.83 437.00 188.00
C 433.04 190.16 415.06 195.30 416.00 200.00 Z"/>
</g>
<g fill="#819F72" fill-opacity="1.00" stroke="None">
<path d="
M 409.00 191.00 
C 409.00 191.00 408.26 190.75 408.00 191.00
C 406.31 191.96 406.57 195.97 408.00 197.00
C 408.32 194.99 408.43 192.90 409.00 191.00 Z"/>
</g>
<g fill="#768C66" fill-opacity="1.00" stroke="None">
<path d="
M 414.00 197.00 
C 415.15 196.18 415.95 194.80 417.00 194.00
C 416.07 194.39 415.09 195.26 414.00 195.00
C 413.65 194.92 413.04 194.35 413.00 194.00
C 411.50 194.97 411.56 197.40 411.00 199.00
C 411.75 198.00 414.29 196.79 414.00 197.00 Z"/>
</g>
<g fill="#96A293" fill-opacity="1.00" stroke="None">
<path d="
M 378.00 200.00 
C 378.21 200.04 378.73 200.76 379.00 201.00
C 379.97 201.16 381.02 200.85 382.00 201.00
C 381.89 200.92 380.11 199.16 380.00 199.00
C 380.02 199.00 378.49 199.94 378.00 200.00 Z"/>
</g>
<g fill="#222C23" fill-opacity="1.00" stroke="None">
<path d="
M 415.00 201.00 
C 415.00 201.00 414.49 200.93 414.00 201.00
C 403.30 202.51 393.23 202.69 382.00 201.00
C 381.02 200.85 379.97 201.16 379.00 201.00
C 386.29 207.29 409.35 207.60 415.00 201.00 Z"/>
</g>
<g fill="#878787" fill-opacity="1.00" stroke="None">
<path d="
M 458.00 240.00 
C 462.58 236.09 467.04 231.63 471.00 227.00
C 466.80 231.20 462.25 235.75 458.00 240.00 Z"/>
</g>
<g fill="#888888" fill-opacity="1.00" stroke="None">
<path d="
M 333.00 240.00 
C 331.45 238.45 329.59 236.59 328.00 235.00
C 329.56 236.82 331.13 238.40 333.00 240.00 Z"/>
</g>
<g fill="#5F5F5F" fill-opacity="1.00" stroke="None">
<path d="
M 388.00 267.00 
L 402.00 267.00
C 402.00 267.00 402.02 266.00 402.00 266.00
C 397.35 266.18 392.65 266.00 388.00 266.00
C 388.00 266.00 388.00 266.50 388.00 267.00 Z"/>
</g>
</svg>