<svg xmlns="http://www.w3.org/2000/svg" xmlns:v="https://svgstorm.com"
viewBox = "0 0 1129 270"
width="1129"
height="270">
<g fill="None" fill-opacity="0.0" stroke="#FEFEFD" stroke-opacity="1.00" stroke-width="0.3"><path d="
M 0.00 270.00 
L 1129.00 270.00
L 1129.00 0.00
L 0.00 0.00
L 0.00 270.00
M 761.00 3.00 
C 761.00 12.00 761.00 21.00 761.00 30.00
C 769.44 30.61 780.86 29.19 789.00 30.00 C 797.14 30.81 802.01 37.07 802.93 45.07 C 803.84 53.08 802.52 65.63 803.00 74.00 C 803.48 82.37 803.14 90.83 796.75 96.75 C 790.37 102.67 780.50 100.93 772.00 101.00 C 763.50 101.07 754.82 102.19 748.25 95.75 C 741.67 89.31 743.33 81.37 743.00 72.00 C 742.67 62.63 743.76 53.07 743.00 43.00 C 742.24 32.93 744.71 25.04 743.00 14.00 C 741.29 2.96 750.12 0.77 761.00 3.00
M 264.00 6.00 
C 277.17 9.57 275.78 23.13 278.78 34.22 C 281.77 45.31 283.18 59.37 287.00 70.00
C 290.40 57.05 295.69 41.92 297.33 28.33 C 298.97 14.73 308.63 -1.20 324.68 6.32 C 340.73 13.85 333.90 32.36 335.00 48.00 C 336.10 63.64 334.17 84.86 335.00 101.00
C 328.67 101.00 322.33 101.00 316.00 101.00
C 316.00 80.00 316.00 59.00 316.00 38.00
C 315.83 38.45 314.17 38.71 314.00 39.00
C 309.24 55.95 304.87 67.99 302.02 86.02 C 299.17 104.06 278.29 107.90 274.02 88.98 C 269.76 70.05 266.67 59.99 262.00 42.00
C 262.07 43.79 260.03 48.79 260.00 49.00
C 260.00 58.48 261.19 68.58 260.00 78.00 C 258.82 87.42 265.68 98.77 254.00 101.00 C 242.32 103.23 238.32 97.08 240.00 86.00 C 241.68 74.92 239.39 67.22 240.00 57.00 C 240.61 46.78 240.06 37.72 240.00 28.00 C 239.94 18.28 241.89 13.13 249.00 7.00
C 254.15 2.56 259.25 3.90 264.00 6.00
M 656.00 58.00 
C 662.94 66.45 661.84 83.82 656.00 91.00
C 650.36 102.40 635.72 101.73 624.00 101.00 C 612.28 100.27 589.55 106.58 591.00 91.00 C 592.45 75.42 590.26 63.91 591.00 49.00 C 591.74 34.09 590.44 20.77 591.00 6.00
C 608.68 8.86 634.44 0.98 650.23 8.77 C 666.01 16.56 659.75 44.11 651.00 54.00
C 653.22 53.95 654.99 56.29 656.00 58.00
M 406.00 44.00 
C 406.23 44.66 406.86 44.89 407.00 46.00
C 412.60 59.74 406.27 80.92 406.00 95.00
C 402.01 93.69 400.34 101.92 397.00 99.00
C 385.94 104.43 374.07 99.83 361.93 100.07 C 349.78 100.31 346.41 87.62 347.00 77.00 C 347.59 66.38 348.94 54.89 362.00 54.00
C 369.91 52.58 379.37 52.98 388.00 53.00
C 388.06 50.88 388.23 48.77 387.00 47.00
C 381.93 44.49 373.46 48.72 368.00 47.00 C 362.54 45.28 354.26 49.08 349.00 47.00 C 343.74 44.92 348.80 34.05 347.00 30.00
C 366.04 33.77 398.98 19.59 406.00 44.00
M 472.00 51.00 
C 474.91 53.80 472.69 62.77 473.00 67.00 C 473.31 71.23 473.61 79.89 473.00 84.00 C 472.39 88.11 475.24 98.73 472.00 101.00
C 469.94 102.44 456.43 101.43 455.00 100.00
C 449.57 94.57 457.27 79.83 454.00 73.00 C 450.73 66.17 460.08 52.06 450.92 48.08 C 441.76 44.11 433.82 51.69 437.00 62.00 C 440.18 72.31 434.00 78.82 437.00 90.00 C 440.00 101.18 428.87 103.12 419.00 101.00
C 421.12 82.67 416.03 59.02 419.33 41.33 C 422.63 23.64 454.64 27.62 462.00 36.00
C 467.32 29.61 474.12 29.88 482.00 30.00 C 489.88 30.12 497.81 28.76 503.25 35.75 C 508.68 42.75 506.47 48.81 507.00 58.00 C 507.53 67.19 506.06 75.08 507.00 85.00 C 507.94 94.92 507.57 102.43 496.00 101.00 C 484.43 99.57 489.50 91.32 489.00 82.00 C 488.50 72.68 488.51 64.28 489.00 55.00 C 489.49 45.72 476.82 45.69 472.00 51.00
M 534.00 54.00 
C 542.22 52.30 552.06 53.19 561.00 53.00
C 563.99 48.32 555.93 46.08 552.00 47.00 C 548.07 47.92 540.60 46.52 536.00 47.00 C 531.40 47.48 524.78 46.64 520.00 47.00
C 520.00 41.33 520.00 35.67 520.00 30.00
C 533.44 29.72 547.64 30.37 561.00 30.00 C 574.36 29.63 581.12 41.28 579.00 54.00 C 576.88 66.72 583.00 81.31 576.08 93.08 C 569.15 104.85 554.94 99.34 543.00 101.00 C 531.06 102.66 518.77 94.78 520.00 82.00 C 521.23 69.22 517.69 55.31 534.00 54.00
M 718.00 30.00 
C 730.87 32.09 732.91 48.96 731.00 60.00 C 729.09 71.05 736.33 90.52 724.75 97.75 C 713.17 104.98 698.15 99.87 684.78 100.22 C 671.40 100.58 669.14 81.15 671.00 71.00 C 672.86 60.85 666.54 39.24 677.25 33.25 C 687.96 27.25 705.91 28.04 718.00 30.00
M 862.00 30.00 
C 875.17 32.14 876.87 48.66 875.00 60.00 C 873.13 71.34 880.27 90.47 868.75 97.75 C 857.23 105.03 842.07 99.95 828.78 100.22 C 815.48 100.49 813.26 81.10 815.00 71.00 C 816.74 60.90 810.50 39.20 821.25 33.25 C 831.99 27.29 849.88 28.03 862.00 30.00
M 594.00 187.00 
C 593.50 187.01 593.00 187.00 593.00 187.00
C 587.29 191.23 573.86 187.77 566.00 188.00 C 558.14 188.23 556.18 177.32 556.00 170.00 C 555.82 162.68 557.54 150.23 556.00 142.00 C 554.46 133.77 559.81 122.46 570.00 130.00
C 570.50 130.00 571.00 130.00 571.00 130.00
C 574.97 133.84 570.49 143.50 572.00 149.00 C 573.51 154.50 570.50 163.23 572.00 169.00 C 573.50 174.77 583.19 173.49 587.00 171.00
C 588.72 156.61 588.15 141.43 587.00 127.00
C 594.76 131.61 607.64 120.36 604.01 136.01 C 600.38 151.65 612.74 180.15 594.00 187.00
M 771.00 187.00 
C 756.97 191.56 758.53 173.93 760.00 164.00 C 761.47 154.07 755.38 142.23 763.25 133.25 C 771.13 124.28 779.79 133.77 784.00 141.00
C 786.34 145.02 787.76 149.34 789.00 154.00
C 796.37 146.11 781.85 132.09 794.01 128.01 C 806.17 123.93 809.15 133.69 807.00 145.00 C 804.85 156.31 808.32 166.97 806.22 178.22 C 804.12 189.47 793.36 189.68 784.00 186.00
C 783.04 176.46 777.12 166.32 776.00 156.00
C 771.40 163.42 775.29 177.16 774.00 187.00
C 773.00 187.00 772.00 187.00 771.00 187.00
M 321.00 147.00 
C 320.97 148.67 321.02 150.33 321.00 152.00
C 330.00 152.00 339.00 152.00 348.00 152.00
C 354.11 154.96 349.56 167.93 342.00 165.00 C 334.44 162.07 327.56 166.81 322.00 166.00
C 320.43 179.44 340.20 173.09 348.00 173.00
C 352.60 176.88 348.29 182.35 351.00 187.00
C 339.46 188.02 319.39 195.26 309.75 184.25 C 300.11 173.24 309.98 150.33 305.00 137.00
C 309.79 132.92 312.98 125.90 320.67 128.33 C 328.36 130.76 338.07 127.44 346.00 129.00 C 353.93 130.56 351.00 144.62 343.00 143.00 C 335.00 141.38 325.80 141.71 321.00 147.00
M 743.00 187.00 
C 736.07 188.66 726.86 189.73 725.22 180.78 C 723.59 171.83 711.15 175.45 705.00 176.00
C 704.42 179.11 702.79 181.94 704.00 185.00
C 697.10 191.40 682.98 188.60 688.32 179.32 C 693.67 170.04 692.20 163.29 696.78 154.78 C 701.35 146.26 699.78 138.55 706.25 131.25 C 712.72 123.94 723.60 129.96 725.98 138.03 C 728.35 146.09 732.79 153.94 734.78 162.22 C 736.77 170.51 741.08 178.51 743.00 187.00
M 386.00 151.00 
C 398.19 147.32 410.24 153.71 411.98 165.02 C 413.71 176.34 409.34 190.74 397.97 189.02 C 386.60 187.30 369.01 196.63 368.00 181.00 C 366.99 165.37 384.95 175.72 395.00 171.00
C 392.78 165.23 384.39 164.28 382.00 170.00
C 383.26 162.97 367.27 164.16 368.03 154.97 C 368.79 145.79 364.76 135.06 374.25 130.25 C 383.73 125.43 393.00 131.80 404.00 129.00 C 415.00 126.20 412.07 147.50 403.00 145.00 C 393.92 142.49 381.65 139.56 386.00 151.00
M 540.00 187.00 
C 532.48 191.73 521.84 186.44 521.68 179.32 C 521.51 172.20 502.74 171.42 501.23 178.23 C 499.73 185.05 493.01 191.64 484.00 188.00
C 485.34 178.57 488.81 165.35 492.98 155.98 C 497.14 146.60 497.33 130.88 510.02 129.02 C 522.72 127.17 525.31 144.86 528.78 154.22 C 532.25 163.59 536.74 177.05 540.00 187.00
M 272.00 164.00 
C 275.34 171.99 283.22 178.30 285.00 187.00
C 268.58 191.95 263.25 175.34 256.00 165.00
C 253.40 172.56 259.11 188.81 247.00 187.00 C 234.89 185.18 242.81 171.66 241.00 162.00 C 239.19 152.34 242.36 139.91 241.00 130.00
C 252.47 132.47 274.43 125.15 283.25 133.75 C 292.06 142.36 286.37 167.73 272.00 164.00
M 468.00 142.00 
C 463.67 142.00 459.33 142.00 455.00 142.00
C 455.00 157.00 455.00 172.00 455.00 187.00
C 443.50 190.86 440.85 182.83 442.00 174.00 C 443.15 165.17 441.25 155.03 442.00 147.00 C 442.75 138.97 423.72 143.33 429.00 133.00 C 434.28 122.67 444.37 133.68 453.00 130.00 C 461.63 126.32 472.30 131.70 468.00 142.00
M 655.00 164.00 
C 658.20 172.29 665.87 178.64 669.00 187.00
C 650.65 193.38 647.95 173.05 638.00 165.00
C 638.00 172.33 638.00 179.67 638.00 187.00
C 621.52 191.83 624.92 176.20 625.00 165.00 C 625.08 153.80 624.94 141.31 625.00 130.00
C 636.33 132.48 658.66 124.85 666.75 134.25 C 674.84 143.64 669.23 167.01 655.00 164.00
M 852.00 142.00 
C 852.51 147.95 854.21 159.23 853.00 165.00 C 851.79 170.77 856.03 183.98 851.00 187.00
C 839.36 193.98 836.13 179.50 838.00 171.00 C 839.87 162.50 836.60 150.79 838.00 142.00
C 833.67 142.00 829.33 142.00 825.00 142.00
C 825.00 138.00 825.00 134.00 825.00 130.00
C 838.33 130.00 851.67 130.00 865.00 130.00
C 865.00 134.00 865.00 138.00 865.00 142.00
C 860.67 142.00 856.33 142.00 852.00 142.00 Z"/>
</g>
<g fill="None" fill-opacity="0.0" stroke="#2A552E" stroke-opacity="1.00" stroke-width="0.3"><path d="
M 761.00 3.00 
C 750.12 0.77 741.29 2.96 743.00 14.00 C 744.71 25.04 742.24 32.93 743.00 43.00 C 743.76 53.07 742.67 62.63 743.00 72.00 C 743.33 81.37 741.67 89.31 748.25 95.75 C 754.82 102.19 763.50 101.07 772.00 101.00 C 780.50 100.93 790.37 102.67 796.75 96.75 C 803.14 90.83 803.48 82.37 803.00 74.00 C 802.52 65.63 803.84 53.08 802.93 45.07 C 802.01 37.07 797.14 30.81 789.00 30.00 C 780.86 29.19 769.44 30.61 761.00 30.00
C 761.00 21.00 761.00 12.00 761.00 3.00
M 783.00 48.00 
C 786.92 50.12 784.99 61.04 785.00 65.00 C 785.01 68.96 787.14 80.72 782.30 82.30 C 777.47 83.88 768.51 83.57 763.78 82.22 C 759.05 80.88 760.95 69.50 761.00 66.00 C 761.05 62.50 759.19 49.16 763.25 48.25 C 767.31 47.34 779.53 46.12 783.00 48.00 Z"/>
</g>
<g fill="None" fill-opacity="0.0" stroke="#D2E7D6" stroke-opacity="1.00" stroke-width="0.3"><path d="
M 249.00 7.00 
C 253.54 4.52 259.15 4.69 264.00 6.00
C 259.25 3.90 254.15 2.56 249.00 7.00 Z"/>
</g>
<g fill="None" fill-opacity="0.0" stroke="#2A552F" stroke-opacity="1.00" stroke-width="0.3"><path d="
M 249.00 7.00 
C 241.89 13.13 239.94 18.28 240.00 28.00 C 240.06 37.72 240.61 46.78 240.00 57.00 C 239.39 67.22 241.68 74.92 240.00 86.00 C 238.32 97.08 242.32 103.23 254.00 101.00 C 265.68 98.77 258.82 87.42 260.00 78.00 C 261.19 68.58 260.00 58.48 260.00 49.00
C 260.00 44.67 260.00 40.33 260.00 36.00
C 261.39 37.38 261.29 40.06 262.00 42.00
C 266.67 59.99 269.76 70.05 274.02 88.98 C 278.29 107.90 299.17 104.06 302.02 86.02 C 304.87 67.99 309.24 55.95 314.00 39.00
C 314.46 37.38 315.12 35.81 315.00 34.00
C 316.60 34.53 315.72 36.75 316.00 38.00
C 316.00 59.00 316.00 80.00 316.00 101.00
C 322.33 101.00 328.67 101.00 335.00 101.00
C 334.17 84.86 336.10 63.64 335.00 48.00 C 333.90 32.36 340.73 13.85 324.68 6.32 C 308.63 -1.20 298.97 14.73 297.33 28.33 C 295.69 41.92 290.40 57.05 287.00 70.00
C 283.18 59.37 281.77 45.31 278.78 34.22 C 275.78 23.13 277.17 9.57 264.00 6.00
C 259.15 4.69 253.54 4.52 249.00 7.00 Z"/>
</g>
<g fill="None" fill-opacity="0.0" stroke="#29542E" stroke-opacity="1.00" stroke-width="0.3"><path d="
M 656.00 91.00 
C 657.29 88.39 657.42 86.82 658.00 84.00
C 658.52 78.33 658.52 71.67 658.00 66.00
C 657.44 63.30 657.39 60.45 656.00 58.00
C 654.99 56.29 653.22 53.95 651.00 54.00
C 659.75 44.11 666.01 16.56 650.23 8.77 C 634.44 0.98 608.68 8.86 591.00 6.00
C 590.44 20.77 591.74 34.09 591.00 49.00 C 590.26 63.91 592.45 75.42 591.00 91.00 C 589.55 106.58 612.28 100.27 624.00 101.00 C 635.72 101.73 650.36 102.40 656.00 91.00
M 635.00 27.00 
C 636.22 27.56 637.17 27.73 638.00 29.00
C 639.92 31.94 640.47 41.37 636.00 43.00
C 628.64 45.68 618.60 40.99 611.00 43.00
C 611.65 37.84 609.69 31.34 612.00 27.00
C 615.00 24.00 631.59 25.43 635.00 27.00
M 611.00 80.00 
C 611.00 74.33 611.00 68.67 611.00 63.00
C 620.59 65.60 636.86 56.58 638.00 71.00 C 639.14 85.43 620.80 78.52 611.00 80.00 Z"/>
</g>
<g fill="None" fill-opacity="0.0" stroke="#869D8A" stroke-opacity="1.00" stroke-width="0.3"><path d="
M 612.00 27.00 
C 614.12 25.52 620.12 27.14 623.00 27.00 C 625.88 26.86 632.10 26.19 635.00 27.00
C 631.59 25.43 615.00 24.00 612.00 27.00 Z"/>
</g>
<g fill="None" fill-opacity="0.0" stroke="#E5F4E5" stroke-opacity="1.00" stroke-width="0.3"><path d="
M 636.00 43.00 
C 638.77 41.57 639.07 31.50 638.00 29.00
C 637.17 27.73 636.22 27.56 635.00 27.00
C 632.10 26.19 625.88 26.86 623.00 27.00 C 620.12 27.14 614.12 25.52 612.00 27.00
C 609.69 31.34 611.65 37.84 611.00 43.00
C 618.60 40.99 628.64 45.68 636.00 43.00
M 636.00 29.00 
C 636.47 33.55 637.06 36.54 636.00 41.00
C 629.80 39.22 613.18 47.48 613.00 35.00 C 612.82 22.52 630.41 29.70 636.00 29.00 Z"/>
</g>
<g fill="None" fill-opacity="0.0" stroke="#FCFDFC" stroke-opacity="1.00" stroke-width="0.3"><path d="
M 636.00 29.00 
C 630.41 29.70 612.82 22.52 613.00 35.00 C 613.18 47.48 629.80 39.22 636.00 41.00
C 637.06 36.54 636.47 33.55 636.00 29.00 Z"/>
</g>
<g fill="None" fill-opacity="0.0" stroke="#647A65" stroke-opacity="1.00" stroke-width="0.3"><path d="
M 636.00 43.00 
C 640.47 41.37 639.92 31.94 638.00 29.00
C 639.07 31.50 638.77 41.57 636.00 43.00 Z"/>
</g>
<g fill="None" fill-opacity="0.0" stroke="#2A542E" stroke-opacity="1.00" stroke-width="0.3"><path d="
M 387.00 47.00 
C 394.16 50.54 384.73 55.31 380.00 54.00 C 375.27 52.69 366.95 53.66 362.00 54.00
C 348.94 54.89 347.59 66.38 347.00 77.00 C 346.41 87.62 349.78 100.31 361.93 100.07 C 374.07 99.83 385.94 104.43 397.00 99.00
C 397.63 98.69 398.43 98.35 399.00 98.00
C 400.26 96.82 403.11 94.29 404.00 93.00
C 405.31 90.74 405.45 88.48 406.00 86.00
C 407.32 73.14 407.59 56.83 406.00 44.00
C 398.98 19.59 366.04 33.77 347.00 30.00
C 348.80 34.05 343.74 44.92 349.00 47.00 C 354.26 49.08 362.54 45.28 368.00 47.00 C 373.46 48.72 381.93 44.49 387.00 47.00
M 388.00 73.00 
C 389.27 75.30 389.62 78.75 388.00 81.00
C 383.84 86.77 364.34 84.69 365.00 76.00 C 365.66 67.31 384.63 66.88 388.00 73.00 Z"/>
</g>
<g fill="None" fill-opacity="0.0" stroke="#2A552F" stroke-opacity="1.00" stroke-width="0.3"><path d="
M 455.00 100.00 
C 458.58 102.51 466.98 98.12 471.00 100.00
C 471.67 84.17 469.67 67.01 472.00 52.00
C 472.00 51.50 472.00 51.00 472.00 51.00
C 476.82 45.69 489.49 45.72 489.00 55.00 C 488.51 64.28 488.50 72.68 489.00 82.00 C 489.50 91.32 484.43 99.57 496.00 101.00 C 507.57 102.43 507.94 94.92 507.00 85.00 C 506.06 75.08 507.53 67.19 507.00 58.00 C 506.47 48.81 508.68 42.75 503.25 35.75 C 497.81 28.76 489.88 30.12 482.00 30.00 C 474.12 29.88 467.32 29.61 462.00 36.00
C 454.64 27.62 422.63 23.64 419.33 41.33 C 416.03 59.02 421.12 82.67 419.00 101.00
C 428.87 103.12 440.00 101.18 437.00 90.00 C 434.00 78.82 440.18 72.31 437.00 62.00 C 433.82 51.69 441.76 44.11 450.92 48.08 C 460.08 52.06 450.73 66.17 454.00 73.00 C 457.27 79.83 449.57 94.57 455.00 100.00 Z"/>
</g>
<g fill="None" fill-opacity="0.0" stroke="#2A552F" stroke-opacity="1.00" stroke-width="0.3"><path d="
M 561.00 53.00 
C 559.10 55.97 551.55 53.30 548.00 54.00 C 544.45 54.70 537.84 53.65 534.00 54.00
C 517.69 55.31 521.23 69.22 520.00 82.00 C 518.77 94.78 531.06 102.66 543.00 101.00 C 554.94 99.34 569.15 104.85 576.08 93.08 C 583.00 81.31 576.88 66.72 579.00 54.00 C 581.12 41.28 574.36 29.63 561.00 30.00 C 547.64 30.37 533.44 29.72 520.00 30.00
C 520.00 35.67 520.00 41.33 520.00 47.00
C 524.78 46.64 531.40 47.48 536.00 47.00 C 540.60 46.52 548.07 47.92 552.00 47.00 C 555.93 46.08 563.99 48.32 561.00 53.00
M 559.00 70.00 
C 561.96 71.59 562.59 82.71 557.92 82.92 C 553.25 83.13 543.47 83.49 539.33 82.67 C 535.19 81.85 536.04 69.55 540.08 70.08 C 544.12 70.62 555.23 67.96 559.00 70.00 Z"/>
</g>
<g fill="None" fill-opacity="0.0" stroke="#2A552E" stroke-opacity="1.00" stroke-width="0.3"><path d="
M 718.00 30.00 
C 705.91 28.04 687.96 27.25 677.25 33.25 C 666.54 39.24 672.86 60.85 671.00 71.00 C 669.14 81.15 671.40 100.58 684.78 100.22 C 698.15 99.87 713.17 104.98 724.75 97.75 C 736.33 90.52 729.09 71.05 731.00 60.00 C 732.91 48.96 730.87 32.09 718.00 30.00
M 711.00 48.00 
C 714.95 50.13 712.90 61.10 713.00 65.00 C 713.10 68.90 714.94 80.16 710.25 82.25 C 705.55 84.33 696.49 83.36 691.78 82.22 C 687.06 81.08 689.00 69.40 689.00 66.00 C 689.00 62.60 687.36 49.30 691.25 48.25 C 695.14 47.21 707.66 46.20 711.00 48.00 Z"/>
</g>
<g fill="None" fill-opacity="0.0" stroke="#2A552E" stroke-opacity="1.00" stroke-width="0.3"><path d="
M 862.00 30.00 
C 849.88 28.03 831.99 27.29 821.25 33.25 C 810.50 39.20 816.74 60.90 815.00 71.00 C 813.26 81.10 815.48 100.49 828.78 100.22 C 842.07 99.95 857.23 105.03 868.75 97.75 C 880.27 90.47 873.13 71.34 875.00 60.00 C 876.87 48.66 875.17 32.14 862.00 30.00
M 855.00 48.00 
C 859.07 50.10 856.87 61.09 857.00 65.00 C 857.13 68.91 858.91 80.27 854.25 82.25 C 849.58 84.22 840.44 83.68 835.78 82.22 C 831.12 80.76 832.89 69.33 833.00 66.00 C 833.11 62.67 831.12 49.10 835.25 48.25 C 839.38 47.40 851.39 46.13 855.00 48.00 Z"/>
</g>
<g fill="None" fill-opacity="0.0" stroke="#8AAE8C" stroke-opacity="1.00" stroke-width="0.3"><path d="
M 314.00 39.00 
C 314.17 38.71 315.83 38.45 316.00 38.00
C 315.72 36.75 316.60 34.53 315.00 34.00
C 315.12 35.81 314.46 37.38 314.00 39.00 Z"/>
</g>
<g fill="None" fill-opacity="0.0" stroke="#D1E9D3" stroke-opacity="1.00" stroke-width="0.3"><path d="
M 260.00 49.00 
C 260.03 48.79 262.07 43.79 262.00 42.00
C 261.29 40.06 261.39 37.38 260.00 36.00
C 260.00 40.33 260.00 44.67 260.00 49.00 Z"/>
</g>
<g fill="None" fill-opacity="0.0" stroke="#AFC6B3" stroke-opacity="1.00" stroke-width="0.3"><path d="
M 406.00 86.00 
C 408.46 74.91 408.47 57.90 407.00 46.00
C 406.86 44.89 406.23 44.66 406.00 44.00
C 407.59 56.83 407.32 73.14 406.00 86.00 Z"/>
</g>
<g fill="None" fill-opacity="0.0" stroke="#E5F5E6" stroke-opacity="1.00" stroke-width="0.3"><path d="
M 406.00 86.00 
C 405.45 88.48 405.31 90.74 404.00 93.00
C 402.83 95.01 400.92 96.83 399.00 98.00
C 398.43 98.35 397.63 98.69 397.00 99.00
C 400.34 101.92 402.01 93.69 406.00 95.00
C 406.27 80.92 412.60 59.74 407.00 46.00
C 408.47 57.90 408.46 74.91 406.00 86.00 Z"/>
</g>
<g fill="None" fill-opacity="0.0" stroke="#829986" stroke-opacity="1.00" stroke-width="0.3"><path d="
M 362.00 54.00 
C 366.95 53.66 375.27 52.69 380.00 54.00 C 384.73 55.31 394.16 50.54 387.00 47.00
C 388.23 48.77 388.06 50.88 388.00 53.00
C 379.37 52.98 369.91 52.58 362.00 54.00 Z"/>
</g>
<g fill="None" fill-opacity="0.0" stroke="#F5FAF5" stroke-opacity="1.00" stroke-width="0.3"><path d="
M 711.00 48.00 
C 707.66 46.20 695.14 47.21 691.25 48.25 C 687.36 49.30 689.00 62.60 689.00 66.00 C 689.00 69.40 687.06 81.08 691.78 82.22 C 696.49 83.36 705.55 84.33 710.25 82.25 C 714.94 80.16 713.10 68.90 713.00 65.00 C 712.90 61.10 714.95 50.13 711.00 48.00 Z"/>
</g>
<g fill="None" fill-opacity="0.0" stroke="#F5F9F5" stroke-opacity="1.00" stroke-width="0.3"><path d="
M 783.00 48.00 
C 779.53 46.12 767.31 47.34 763.25 48.25 C 759.19 49.16 761.05 62.50 761.00 66.00 C 760.95 69.50 759.05 80.88 763.78 82.22 C 768.51 83.57 777.47 83.88 782.30 82.30 C 787.14 80.72 785.01 68.96 785.00 65.00 C 784.99 61.04 786.92 50.12 783.00 48.00 Z"/>
</g>
<g fill="None" fill-opacity="0.0" stroke="#F5FAF5" stroke-opacity="1.00" stroke-width="0.3"><path d="
M 855.00 48.00 
C 851.39 46.13 839.38 47.40 835.25 48.25 C 831.12 49.10 833.11 62.67 833.00 66.00 C 832.89 69.33 831.12 80.76 835.78 82.22 C 840.44 83.68 849.58 84.22 854.25 82.25 C 858.91 80.27 857.13 68.91 857.00 65.00 C 856.87 61.09 859.07 50.10 855.00 48.00 Z"/>
</g>
<g fill="None" fill-opacity="0.0" stroke="#E0F1E1" stroke-opacity="1.00" stroke-width="0.3"><path d="
M 472.00 52.00 
C 472.00 68.33 472.00 84.67 472.00 101.00
C 475.24 98.73 472.39 88.11 473.00 84.00 C 473.61 79.89 473.31 71.23 473.00 67.00 C 472.69 62.77 474.91 53.80 472.00 51.00
C 472.00 51.00 472.00 51.50 472.00 52.00 Z"/>
</g>
<g fill="None" fill-opacity="0.0" stroke="#617963" stroke-opacity="1.00" stroke-width="0.3"><path d="
M 455.00 100.00 
C 456.43 101.43 469.94 102.44 472.00 101.00
C 472.00 84.67 472.00 68.33 472.00 52.00
C 469.67 67.01 471.67 84.17 471.00 100.00
C 466.98 98.12 458.58 102.51 455.00 100.00 Z"/>
</g>
<g fill="None" fill-opacity="0.0" stroke="#839A89" stroke-opacity="1.00" stroke-width="0.3"><path d="
M 534.00 54.00 
C 537.84 53.65 544.45 54.70 548.00 54.00 C 551.55 53.30 559.10 55.97 561.00 53.00
C 552.06 53.19 542.22 52.30 534.00 54.00 Z"/>
</g>
<g fill="None" fill-opacity="0.0" stroke="#DBE9D9" stroke-opacity="1.00" stroke-width="0.3"><path d="
M 658.00 66.00 
C 659.17 71.63 659.15 78.43 658.00 84.00
C 657.42 86.82 657.29 88.39 656.00 91.00
C 661.84 83.82 662.94 66.45 656.00 58.00
C 657.39 60.45 657.44 63.30 658.00 66.00 Z"/>
</g>
<g fill="None" fill-opacity="0.0" stroke="#F1F7F1" stroke-opacity="1.00" stroke-width="0.3"><path d="
M 611.00 80.00 
C 620.80 78.52 639.14 85.43 638.00 71.00 C 636.86 56.58 620.59 65.60 611.00 63.00
C 611.00 68.67 611.00 74.33 611.00 80.00 Z"/>
</g>
<g fill="None" fill-opacity="0.0" stroke="#768F78" stroke-opacity="1.00" stroke-width="0.3"><path d="
M 658.00 84.00 
C 659.15 78.43 659.17 71.63 658.00 66.00
C 658.52 71.67 658.52 78.33 658.00 84.00 Z"/>
</g>
<g fill="None" fill-opacity="0.0" stroke="#F4FAF4" stroke-opacity="1.00" stroke-width="0.3"><path d="
M 388.00 81.00 
C 388.56 79.87 388.44 74.20 388.00 73.00
C 384.63 66.88 365.66 67.31 365.00 76.00 C 364.34 84.69 383.84 86.77 388.00 81.00 Z"/>
</g>
<g fill="None" fill-opacity="0.0" stroke="#F1F7F0" stroke-opacity="1.00" stroke-width="0.3"><path d="
M 559.00 70.00 
C 555.23 67.96 544.12 70.62 540.08 70.08 C 536.04 69.55 535.19 81.85 539.33 82.67 C 543.47 83.49 553.25 83.13 557.92 82.92 C 562.59 82.71 561.96 71.59 559.00 70.00 Z"/>
</g>
<g fill="None" fill-opacity="0.0" stroke="#79947E" stroke-opacity="1.00" stroke-width="0.3"><path d="
M 388.00 81.00 
C 389.62 78.75 389.27 75.30 388.00 73.00
C 388.44 74.20 388.56 79.87 388.00 81.00 Z"/>
</g>
<g fill="None" fill-opacity="0.0" stroke="#5E735E" stroke-opacity="1.00" stroke-width="0.3"><path d="
M 399.00 98.00 
C 400.92 96.83 402.83 95.01 404.00 93.00
C 403.11 94.29 400.26 96.82 399.00 98.00 Z"/>
</g>
<g fill="None" fill-opacity="0.0" stroke="#FBF3E1" stroke-opacity="1.00" stroke-width="0.3"><path d="
M 571.00 130.00 
C 572.05 141.71 571.72 153.08 571.00 165.00 C 570.28 176.92 589.59 178.31 589.00 166.00 C 588.41 153.69 589.44 142.24 589.00 130.00
C 590.33 130.00 591.67 130.00 593.00 130.00
C 595.88 129.40 599.09 130.45 602.00 130.00
C 601.93 140.10 602.09 152.09 602.00 162.00 C 601.91 171.91 604.62 182.90 594.00 187.00
C 612.74 180.15 600.38 151.65 604.01 136.01 C 607.64 120.36 594.76 131.61 587.00 127.00
C 588.15 141.43 588.72 156.61 587.00 171.00
C 583.19 173.49 573.50 174.77 572.00 169.00 C 570.50 163.23 573.51 154.50 572.00 149.00 C 570.49 143.50 574.97 133.84 571.00 130.00 Z"/>
</g>
<g fill="None" fill-opacity="0.0" stroke="#F7ECD4" stroke-opacity="1.00" stroke-width="0.3"><path d="
M 784.00 141.00 
C 787.04 150.49 788.57 160.57 792.00 170.00
C 791.77 159.75 795.74 152.50 793.00 141.00 C 790.26 129.50 804.75 125.71 805.00 137.00 C 805.25 148.29 804.56 156.93 805.00 167.00 C 805.44 177.07 805.65 185.66 794.99 186.99 C 784.33 188.33 783.58 177.82 781.67 170.33 C 779.76 162.83 775.52 154.80 774.00 147.00
C 770.41 159.11 776.24 175.86 771.00 187.00
C 772.00 187.00 773.00 187.00 774.00 187.00
C 775.29 177.16 771.40 163.42 776.00 156.00
C 777.12 166.32 783.04 176.46 784.00 186.00
C 793.36 189.68 804.12 189.47 806.22 178.22 C 808.32 166.97 804.85 156.31 807.00 145.00 C 809.15 133.69 806.17 123.93 794.01 128.01 C 781.85 132.09 796.37 146.11 789.00 154.00
C 787.76 149.34 786.34 145.02 784.00 141.00 Z"/>
</g>
<g fill="None" fill-opacity="0.0" stroke="#F8EFDA" stroke-opacity="1.00" stroke-width="0.3"><path d="
M 348.00 152.00 
C 348.00 156.00 348.00 160.00 348.00 164.00
C 339.00 164.00 330.00 164.00 321.00 164.00
C 318.00 174.33 325.97 176.91 335.00 175.00 C 344.03 173.09 351.26 176.47 348.00 187.00
C 337.21 185.91 325.57 189.02 315.33 185.67 C 305.08 182.33 307.59 167.39 308.00 159.00 C 308.41 150.61 304.49 135.29 314.08 131.08 C 323.68 126.87 337.67 131.99 348.00 130.00
C 351.16 139.48 345.33 142.67 338.00 142.00 C 330.68 141.33 321.66 139.59 321.00 147.00
C 325.80 141.71 335.00 141.38 343.00 143.00 C 351.00 144.62 353.93 130.56 346.00 129.00 C 338.07 127.44 328.36 130.76 320.67 128.33 C 312.98 125.90 309.79 132.92 305.00 137.00
C 309.98 150.33 300.11 173.24 309.75 184.25 C 319.39 195.26 339.46 188.02 351.00 187.00
C 348.29 182.35 352.60 176.88 348.00 173.00
C 340.20 173.09 320.43 179.44 322.00 166.00
C 327.56 166.81 334.44 162.07 342.00 165.00 C 349.56 167.93 354.11 154.96 348.00 152.00 Z"/>
</g>
<g fill="None" fill-opacity="0.0" stroke="#E3C593" stroke-opacity="1.00" stroke-width="0.3"><path d="
M 743.00 187.00 
C 741.08 178.51 736.77 170.51 734.78 162.22 C 732.79 153.94 728.35 146.09 725.98 138.03 C 723.60 129.96 712.72 123.94 706.25 131.25 C 699.78 138.55 701.35 146.26 696.78 154.78 C 692.20 163.29 693.67 170.04 688.32 179.32 C 682.98 188.60 697.10 191.40 704.00 185.00
C 702.79 181.94 704.42 179.11 705.00 176.00
C 711.15 175.45 723.59 171.83 725.22 180.78 C 726.86 189.73 736.07 188.66 743.00 187.00
M 714.00 146.00 
C 716.77 151.28 718.03 157.28 720.00 163.00
C 716.33 163.00 712.67 163.00 709.00 163.00
C 709.60 157.16 711.20 150.83 714.00 146.00 Z"/>
</g>
<g fill="None" fill-opacity="0.0" stroke="#FAF2DE" stroke-opacity="1.00" stroke-width="0.3"><path d="
M 386.00 151.00 
C 381.65 139.56 393.92 142.49 403.00 145.00 C 412.07 147.50 415.00 126.20 404.00 129.00 C 393.00 131.80 383.73 125.43 374.25 130.25 C 364.76 135.06 368.79 145.79 368.03 154.97 C 367.27 164.16 383.26 162.97 382.00 170.00
C 384.39 164.28 392.78 165.23 395.00 171.00
C 384.95 175.72 366.99 165.37 368.00 181.00 C 369.01 196.63 386.60 187.30 397.97 189.02 C 409.34 190.74 413.71 176.34 411.98 165.02 C 410.24 153.71 398.19 147.32 386.00 151.00
M 383.00 142.00 
C 378.82 151.77 388.96 152.96 395.00 152.00 C 401.04 151.04 408.73 154.95 408.93 161.07 C 409.12 167.20 410.87 177.15 407.23 182.23 C 403.59 187.31 395.12 187.99 389.00 187.00 C 382.88 186.01 371.83 190.80 370.01 182.99 C 368.19 175.19 377.45 171.83 385.00 175.00 C 392.55 178.17 400.54 169.43 394.29 164.71 C 388.04 159.98 379.96 167.21 374.31 161.69 C 368.65 156.18 370.07 150.10 370.00 143.00 C 369.93 135.90 372.85 131.54 380.03 130.02 C 387.20 128.51 395.34 132.21 403.00 130.00 C 410.66 127.79 413.76 141.24 405.99 141.99 C 398.22 142.74 390.74 141.45 383.00 142.00 Z"/>
</g>
<g fill="None" fill-opacity="0.0" stroke="#E3C491" stroke-opacity="1.00" stroke-width="0.3"><path d="
M 540.00 187.00 
C 536.74 177.05 532.25 163.59 528.78 154.22 C 525.31 144.86 522.72 127.17 510.02 129.02 C 497.33 130.88 497.14 146.60 492.98 155.98 C 488.81 165.35 485.34 178.57 484.00 188.00
C 493.01 191.64 499.73 185.05 501.23 178.23 C 502.74 171.42 521.51 172.20 521.68 179.32 C 521.84 186.44 532.48 191.73 540.00 187.00
M 511.00 145.00 
C 513.14 150.93 516.33 156.55 517.00 163.00
C 513.33 163.00 509.67 163.00 506.00 163.00
C 507.02 156.95 507.76 150.01 511.00 145.00 Z"/>
</g>
<g fill="None" fill-opacity="0.0" stroke="#FDF5E2" stroke-opacity="1.00" stroke-width="0.3"><path d="
M 593.00 187.00 
C 582.37 187.00 559.64 191.50 557.22 176.78 C 554.81 162.05 558.57 144.96 557.00 130.00
C 560.67 130.00 564.33 130.00 568.00 130.00
C 568.50 130.00 569.50 130.00 570.00 130.00
C 559.81 122.46 554.46 133.77 556.00 142.00 C 557.54 150.23 555.82 162.68 556.00 170.00 C 556.18 177.32 558.14 188.23 566.00 188.00 C 573.86 187.77 587.29 191.23 593.00 187.00 Z"/>
</g>
<g fill="None" fill-opacity="0.0" stroke="#E1C18C" stroke-opacity="1.00" stroke-width="0.3"><path d="
M 272.00 164.00 
C 286.37 167.73 292.06 142.36 283.25 133.75 C 274.43 125.15 252.47 132.47 241.00 130.00
C 242.36 139.91 239.19 152.34 241.00 162.00 C 242.81 171.66 234.89 185.18 247.00 187.00 C 259.11 188.81 253.40 172.56 256.00 165.00
C 263.25 175.34 268.58 191.95 285.00 187.00
C 283.22 178.30 275.34 171.99 272.00 164.00
M 272.00 154.00 
C 265.94 153.88 259.42 153.50 255.00 158.00
C 255.99 150.67 251.48 142.47 261.00 142.00 C 270.52 141.53 273.97 143.64 272.00 154.00 Z"/>
</g>
<g fill="None" fill-opacity="0.0" stroke="#E0C089" stroke-opacity="1.00" stroke-width="0.3"><path d="
M 348.00 152.00 
C 339.00 152.00 330.00 152.00 321.00 152.00
C 321.02 150.33 320.97 148.67 321.00 147.00
C 321.66 139.59 330.68 141.33 338.00 142.00 C 345.33 142.67 351.16 139.48 348.00 130.00
C 337.67 131.99 323.68 126.87 314.08 131.08 C 304.49 135.29 308.41 150.61 308.00 159.00 C 307.59 167.39 305.08 182.33 315.33 185.67 C 325.57 189.02 337.21 185.91 348.00 187.00
C 351.26 176.47 344.03 173.09 335.00 175.00 C 325.97 176.91 318.00 174.33 321.00 164.00
C 330.00 164.00 339.00 164.00 348.00 164.00
C 348.00 160.00 348.00 156.00 348.00 152.00 Z"/>
</g>
<g fill="None" fill-opacity="0.0" stroke="#E0C089" stroke-opacity="1.00" stroke-width="0.3"><path d="
M 383.00 142.00 
C 390.74 141.45 398.22 142.74 405.99 141.99 C 413.76 141.24 410.66 127.79 403.00 130.00 C 395.34 132.21 387.20 128.51 380.03 130.02 C 372.85 131.54 369.93 135.90 370.00 143.00 C 370.07 150.10 368.65 156.18 374.31 161.69 C 379.96 167.21 388.04 159.98 394.29 164.71 C 400.54 169.43 392.55 178.17 385.00 175.00 C 377.45 171.83 368.19 175.19 370.01 182.99 C 371.83 190.80 382.88 186.01 389.00 187.00 C 395.12 187.99 403.59 187.31 407.23 182.23 C 410.87 177.15 409.12 167.20 408.93 161.07 C 408.73 154.95 401.04 151.04 395.00 152.00 C 388.96 152.96 378.82 151.77 383.00 142.00 Z"/>
</g>
<g fill="None" fill-opacity="0.0" stroke="#E0BF89" stroke-opacity="1.00" stroke-width="0.3"><path d="
M 468.00 142.00 
C 472.30 131.70 461.63 126.32 453.00 130.00 C 444.37 133.68 434.28 122.67 429.00 133.00 C 423.72 143.33 442.75 138.97 442.00 147.00 C 441.25 155.03 443.15 165.17 442.00 174.00 C 440.85 182.83 443.50 190.86 455.00 187.00
C 455.00 172.00 455.00 157.00 455.00 142.00
C 459.33 142.00 463.67 142.00 468.00 142.00 Z"/>
</g>
<g fill="None" fill-opacity="0.0" stroke="#DFC089" stroke-opacity="1.00" stroke-width="0.3"><path d="
M 593.00 187.00 
C 593.00 187.00 593.50 187.01 594.00 187.00
C 604.62 182.90 601.91 171.91 602.00 162.00 C 602.09 152.09 601.93 140.10 602.00 130.00
C 599.09 130.45 595.88 129.40 593.00 130.00
C 586.58 132.37 591.09 144.99 590.00 151.00 C 588.91 157.01 590.40 167.85 591.00 174.00
C 578.40 178.30 568.03 174.93 570.00 162.00 C 571.97 149.07 570.09 139.00 568.00 130.00
C 564.33 130.00 560.67 130.00 557.00 130.00
C 558.57 144.96 554.81 162.05 557.22 176.78 C 559.64 191.50 582.37 187.00 593.00 187.00 Z"/>
</g>
<g fill="None" fill-opacity="0.0" stroke="#E6D5B5" stroke-opacity="1.00" stroke-width="0.3"><path d="
M 593.00 130.00 
C 591.67 130.00 590.33 130.00 589.00 130.00
C 589.44 142.24 588.41 153.69 589.00 166.00 C 589.59 178.31 570.28 176.92 571.00 165.00 C 571.72 153.08 572.05 141.71 571.00 130.00
C 571.00 130.00 570.50 130.00 570.00 130.00
C 569.50 130.00 568.50 130.00 568.00 130.00
C 570.09 139.00 571.97 149.07 570.00 162.00 C 568.03 174.93 578.40 178.30 591.00 174.00
C 590.40 167.85 588.91 157.01 590.00 151.00 C 591.09 144.99 586.58 132.37 593.00 130.00 Z"/>
</g>
<g fill="None" fill-opacity="0.0" stroke="#E1C08A" stroke-opacity="1.00" stroke-width="0.3"><path d="
M 655.00 164.00 
C 669.23 167.01 674.84 143.64 666.75 134.25 C 658.66 124.85 636.33 132.48 625.00 130.00
C 624.94 141.31 625.08 153.80 625.00 165.00 C 624.92 176.20 621.52 191.83 638.00 187.00
C 638.00 179.67 638.00 172.33 638.00 165.00
C 647.95 173.05 650.65 193.38 669.00 187.00
C 665.87 178.64 658.20 172.29 655.00 164.00
M 638.00 158.00 
C 638.00 152.67 638.00 147.33 638.00 142.00
C 645.62 141.30 658.16 140.14 656.00 150.00 C 653.84 159.86 642.59 150.35 638.00 158.00 Z"/>
</g>
<g fill="None" fill-opacity="0.0" stroke="#E0C089" stroke-opacity="1.00" stroke-width="0.3"><path d="
M 771.00 187.00 
C 776.24 175.86 770.41 159.11 774.00 147.00
C 775.52 154.80 779.76 162.83 781.67 170.33 C 783.58 177.82 784.33 188.33 794.99 186.99 C 805.65 185.66 805.44 177.07 805.00 167.00 C 804.56 156.93 805.25 148.29 805.00 137.00 C 804.75 125.71 790.26 129.50 793.00 141.00 C 795.74 152.50 791.77 159.75 792.00 170.00
C 788.57 160.57 787.04 150.49 784.00 141.00
C 779.79 133.77 771.13 124.28 763.25 133.25 C 755.38 142.23 761.47 154.07 760.00 164.00 C 758.53 173.93 756.97 191.56 771.00 187.00 Z"/>
</g>
<g fill="None" fill-opacity="0.0" stroke="#E0BF8A" stroke-opacity="1.00" stroke-width="0.3"><path d="
M 851.00 187.00 
C 852.17 180.84 849.44 169.65 851.00 164.00 C 852.56 158.35 847.54 145.12 852.00 142.00
C 856.33 142.00 860.67 142.00 865.00 142.00
C 865.00 138.00 865.00 134.00 865.00 130.00
C 851.67 130.00 838.33 130.00 825.00 130.00
C 825.00 134.00 825.00 138.00 825.00 142.00
C 829.33 142.00 833.67 142.00 838.00 142.00
C 836.60 150.79 839.87 162.50 838.00 171.00 C 836.13 179.50 839.36 193.98 851.00 187.00 Z"/>
</g>
<g fill="None" fill-opacity="0.0" stroke="#FDF9F1" stroke-opacity="1.00" stroke-width="0.3"><path d="
M 272.00 154.00 
C 273.97 143.64 270.52 141.53 261.00 142.00 C 251.48 142.47 255.99 150.67 255.00 158.00
C 259.42 153.50 265.94 153.88 272.00 154.00 Z"/>
</g>
<g fill="None" fill-opacity="0.0" stroke="#FCF7EC" stroke-opacity="1.00" stroke-width="0.3"><path d="
M 638.00 158.00 
C 642.59 150.35 653.84 159.86 656.00 150.00 C 658.16 140.14 645.62 141.30 638.00 142.00
C 638.00 147.33 638.00 152.67 638.00 158.00 Z"/>
</g>
<g fill="None" fill-opacity="0.0" stroke="#F6E7CE" stroke-opacity="1.00" stroke-width="0.3"><path d="
M 851.00 187.00 
C 856.03 183.98 851.79 170.77 853.00 165.00 C 854.21 159.23 852.51 147.95 852.00 142.00
C 847.54 145.12 852.56 158.35 851.00 164.00 C 849.44 169.65 852.17 180.84 851.00 187.00 Z"/>
</g>
<g fill="None" fill-opacity="0.0" stroke="#FAF2DD" stroke-opacity="1.00" stroke-width="0.3"><path d="
M 511.00 145.00 
C 507.76 150.01 507.02 156.95 506.00 163.00
C 509.67 163.00 513.33 163.00 517.00 163.00
C 516.33 156.55 513.14 150.93 511.00 145.00 Z"/>
</g>
<g fill="None" fill-opacity="0.0" stroke="#FBF3E5" stroke-opacity="1.00" stroke-width="0.3"><path d="
M 714.00 146.00 
C 711.20 150.83 709.60 157.16 709.00 163.00
C 712.67 163.00 716.33 163.00 720.00 163.00
C 718.03 157.28 716.77 151.28 714.00 146.00 Z"/>
</g>
<g fill="#FEFEFD" fill-opacity="1.00" stroke="None">
<path d="
M 0.00 270.00 
L 1129.00 270.00
L 1129.00 0.00
L 0.00 0.00
L 0.00 270.00
M 761.00 3.00 
C 761.00 12.00 761.00 21.00 761.00 30.00
C 769.44 30.61 780.86 29.19 789.00 30.00 C 797.14 30.81 802.01 37.07 802.93 45.07 C 803.84 53.08 802.52 65.63 803.00 74.00 C 803.48 82.37 803.14 90.83 796.75 96.75 C 790.37 102.67 780.50 100.93 772.00 101.00 C 763.50 101.07 754.82 102.19 748.25 95.75 C 741.67 89.31 743.33 81.37 743.00 72.00 C 742.67 62.63 743.76 53.07 743.00 43.00 C 742.24 32.93 744.71 25.04 743.00 14.00 C 741.29 2.96 750.12 0.77 761.00 3.00
M 264.00 6.00 
C 277.17 9.57 275.78 23.13 278.78 34.22 C 281.77 45.31 283.18 59.37 287.00 70.00
C 290.40 57.05 295.69 41.92 297.33 28.33 C 298.97 14.73 308.63 -1.20 324.68 6.32 C 340.73 13.85 333.90 32.36 335.00 48.00 C 336.10 63.64 334.17 84.86 335.00 101.00
C 328.67 101.00 322.33 101.00 316.00 101.00
C 316.00 80.00 316.00 59.00 316.00 38.00
C 315.83 38.45 314.17 38.71 314.00 39.00
C 309.24 55.95 304.87 67.99 302.02 86.02 C 299.17 104.06 278.29 107.90 274.02 88.98 C 269.76 70.05 266.67 59.99 262.00 42.00
C 262.07 43.79 260.03 48.79 260.00 49.00
C 260.00 58.48 261.19 68.58 260.00 78.00 C 258.82 87.42 265.68 98.77 254.00 101.00 C 242.32 103.23 238.32 97.08 240.00 86.00 C 241.68 74.92 239.39 67.22 240.00 57.00 C 240.61 46.78 240.06 37.72 240.00 28.00 C 239.94 18.28 241.89 13.13 249.00 7.00
C 254.15 2.56 259.25 3.90 264.00 6.00
M 656.00 58.00 
C 662.94 66.45 661.84 83.82 656.00 91.00
C 650.36 102.40 635.72 101.73 624.00 101.00 C 612.28 100.27 589.55 106.58 591.00 91.00 C 592.45 75.42 590.26 63.91 591.00 49.00 C 591.74 34.09 590.44 20.77 591.00 6.00
C 608.68 8.86 634.44 0.98 650.23 8.77 C 666.01 16.56 659.75 44.11 651.00 54.00
C 653.22 53.95 654.99 56.29 656.00 58.00
M 406.00 44.00 
C 406.23 44.66 406.86 44.89 407.00 46.00
C 412.60 59.74 406.27 80.92 406.00 95.00
C 402.01 93.69 400.34 101.92 397.00 99.00
C 385.94 104.43 374.07 99.83 361.93 100.07 C 349.78 100.31 346.41 87.62 347.00 77.00 C 347.59 66.38 348.94 54.89 362.00 54.00
C 369.91 52.58 379.37 52.98 388.00 53.00
C 388.06 50.88 388.23 48.77 387.00 47.00
C 381.93 44.49 373.46 48.72 368.00 47.00 C 362.54 45.28 354.26 49.08 349.00 47.00 C 343.74 44.92 348.80 34.05 347.00 30.00
C 366.04 33.77 398.98 19.59 406.00 44.00
M 472.00 51.00 
C 474.91 53.80 472.69 62.77 473.00 67.00 C 473.31 71.23 473.61 79.89 473.00 84.00 C 472.39 88.11 475.24 98.73 472.00 101.00
C 469.94 102.44 456.43 101.43 455.00 100.00
C 449.57 94.57 457.27 79.83 454.00 73.00 C 450.73 66.17 460.08 52.06 450.92 48.08 C 441.76 44.11 433.82 51.69 437.00 62.00 C 440.18 72.31 434.00 78.82 437.00 90.00 C 440.00 101.18 428.87 103.12 419.00 101.00
C 421.12 82.67 416.03 59.02 419.33 41.33 C 422.63 23.64 454.64 27.62 462.00 36.00
C 467.32 29.61 474.12 29.88 482.00 30.00 C 489.88 30.12 497.81 28.76 503.25 35.75 C 508.68 42.75 506.47 48.81 507.00 58.00 C 507.53 67.19 506.06 75.08 507.00 85.00 C 507.94 94.92 507.57 102.43 496.00 101.00 C 484.43 99.57 489.50 91.32 489.00 82.00 C 488.50 72.68 488.51 64.28 489.00 55.00 C 489.49 45.72 476.82 45.69 472.00 51.00
M 534.00 54.00 
C 542.22 52.30 552.06 53.19 561.00 53.00
C 563.99 48.32 555.93 46.08 552.00 47.00 C 548.07 47.92 540.60 46.52 536.00 47.00 C 531.40 47.48 524.78 46.64 520.00 47.00
C 520.00 41.33 520.00 35.67 520.00 30.00
C 533.44 29.72 547.64 30.37 561.00 30.00 C 574.36 29.63 581.12 41.28 579.00 54.00 C 576.88 66.72 583.00 81.31 576.08 93.08 C 569.15 104.85 554.94 99.34 543.00 101.00 C 531.06 102.66 518.77 94.78 520.00 82.00 C 521.23 69.22 517.69 55.31 534.00 54.00
M 718.00 30.00 
C 730.87 32.09 732.91 48.96 731.00 60.00 C 729.09 71.05 736.33 90.52 724.75 97.75 C 713.17 104.98 698.15 99.87 684.78 100.22 C 671.40 100.58 669.14 81.15 671.00 71.00 C 672.86 60.85 666.54 39.24 677.25 33.25 C 687.96 27.25 705.91 28.04 718.00 30.00
M 862.00 30.00 
C 875.17 32.14 876.87 48.66 875.00 60.00 C 873.13 71.34 880.27 90.47 868.75 97.75 C 857.23 105.03 842.07 99.95 828.78 100.22 C 815.48 100.49 813.26 81.10 815.00 71.00 C 816.74 60.90 810.50 39.20 821.25 33.25 C 831.99 27.29 849.88 28.03 862.00 30.00
M 594.00 187.00 
C 593.50 187.01 593.00 187.00 593.00 187.00
C 587.29 191.23 573.86 187.77 566.00 188.00 C 558.14 188.23 556.18 177.32 556.00 170.00 C 555.82 162.68 557.54 150.23 556.00 142.00 C 554.46 133.77 559.81 122.46 570.00 130.00
C 570.50 130.00 571.00 130.00 571.00 130.00
C 574.97 133.84 570.49 143.50 572.00 149.00 C 573.51 154.50 570.50 163.23 572.00 169.00 C 573.50 174.77 583.19 173.49 587.00 171.00
C 588.72 156.61 588.15 141.43 587.00 127.00
C 594.76 131.61 607.64 120.36 604.01 136.01 C 600.38 151.65 612.74 180.15 594.00 187.00
M 771.00 187.00 
C 756.97 191.56 758.53 173.93 760.00 164.00 C 761.47 154.07 755.38 142.23 763.25 133.25 C 771.13 124.28 779.79 133.77 784.00 141.00
C 786.34 145.02 787.76 149.34 789.00 154.00
C 796.37 146.11 781.85 132.09 794.01 128.01 C 806.17 123.93 809.15 133.69 807.00 145.00 C 804.85 156.31 808.32 166.97 806.22 178.22 C 804.12 189.47 793.36 189.68 784.00 186.00
C 783.04 176.46 777.12 166.32 776.00 156.00
C 771.40 163.42 775.29 177.16 774.00 187.00
C 773.00 187.00 772.00 187.00 771.00 187.00
M 321.00 147.00 
C 320.97 148.67 321.02 150.33 321.00 152.00
C 330.00 152.00 339.00 152.00 348.00 152.00
C 354.11 154.96 349.56 167.93 342.00 165.00 C 334.44 162.07 327.56 166.81 322.00 166.00
C 320.43 179.44 340.20 173.09 348.00 173.00
C 352.60 176.88 348.29 182.35 351.00 187.00
C 339.46 188.02 319.39 195.26 309.75 184.25 C 300.11 173.24 309.98 150.33 305.00 137.00
C 309.79 132.92 312.98 125.90 320.67 128.33 C 328.36 130.76 338.07 127.44 346.00 129.00 C 353.93 130.56 351.00 144.62 343.00 143.00 C 335.00 141.38 325.80 141.71 321.00 147.00
M 743.00 187.00 
C 736.07 188.66 726.86 189.73 725.22 180.78 C 723.59 171.83 711.15 175.45 705.00 176.00
C 704.42 179.11 702.79 181.94 704.00 185.00
C 697.10 191.40 682.98 188.60 688.32 179.32 C 693.67 170.04 692.20 163.29 696.78 154.78 C 701.35 146.26 699.78 138.55 706.25 131.25 C 712.72 123.94 723.60 129.96 725.98 138.03 C 728.35 146.09 732.79 153.94 734.78 162.22 C 736.77 170.51 741.08 178.51 743.00 187.00
M 386.00 151.00 
C 398.19 147.32 410.24 153.71 411.98 165.02 C 413.71 176.34 409.34 190.74 397.97 189.02 C 386.60 187.30 369.01 196.63 368.00 181.00 C 366.99 165.37 384.95 175.72 395.00 171.00
C 392.78 165.23 384.39 164.28 382.00 170.00
C 383.26 162.97 367.27 164.16 368.03 154.97 C 368.79 145.79 364.76 135.06 374.25 130.25 C 383.73 125.43 393.00 131.80 404.00 129.00 C 415.00 126.20 412.07 147.50 403.00 145.00 C 393.92 142.49 381.65 139.56 386.00 151.00
M 540.00 187.00 
C 532.48 191.73 521.84 186.44 521.68 179.32 C 521.51 172.20 502.74 171.42 501.23 178.23 C 499.73 185.05 493.01 191.64 484.00 188.00
C 485.34 178.57 488.81 165.35 492.98 155.98 C 497.14 146.60 497.33 130.88 510.02 129.02 C 522.72 127.17 525.31 144.86 528.78 154.22 C 532.25 163.59 536.74 177.05 540.00 187.00
M 272.00 164.00 
C 275.34 171.99 283.22 178.30 285.00 187.00
C 268.58 191.95 263.25 175.34 256.00 165.00
C 253.40 172.56 259.11 188.81 247.00 187.00 C 234.89 185.18 242.81 171.66 241.00 162.00 C 239.19 152.34 242.36 139.91 241.00 130.00
C 252.47 132.47 274.43 125.15 283.25 133.75 C 292.06 142.36 286.37 167.73 272.00 164.00
M 468.00 142.00 
C 463.67 142.00 459.33 142.00 455.00 142.00
C 455.00 157.00 455.00 172.00 455.00 187.00
C 443.50 190.86 440.85 182.83 442.00 174.00 C 443.15 165.17 441.25 155.03 442.00 147.00 C 442.75 138.97 423.72 143.33 429.00 133.00 C 434.28 122.67 444.37 133.68 453.00 130.00 C 461.63 126.32 472.30 131.70 468.00 142.00
M 655.00 164.00 
C 658.20 172.29 665.87 178.64 669.00 187.00
C 650.65 193.38 647.95 173.05 638.00 165.00
C 638.00 172.33 638.00 179.67 638.00 187.00
C 621.52 191.83 624.92 176.20 625.00 165.00 C 625.08 153.80 624.94 141.31 625.00 130.00
C 636.33 132.48 658.66 124.85 666.75 134.25 C 674.84 143.64 669.23 167.01 655.00 164.00
M 852.00 142.00 
C 852.51 147.95 854.21 159.23 853.00 165.00 C 851.79 170.77 856.03 183.98 851.00 187.00
C 839.36 193.98 836.13 179.50 838.00 171.00 C 839.87 162.50 836.60 150.79 838.00 142.00
C 833.67 142.00 829.33 142.00 825.00 142.00
C 825.00 138.00 825.00 134.00 825.00 130.00
C 838.33 130.00 851.67 130.00 865.00 130.00
C 865.00 134.00 865.00 138.00 865.00 142.00
C 860.67 142.00 856.33 142.00 852.00 142.00 Z"/>
</g>
<g fill="#2A552E" fill-opacity="1.00" stroke="None">
<path d="
M 761.00 3.00 
C 750.12 0.77 741.29 2.96 743.00 14.00 C 744.71 25.04 742.24 32.93 743.00 43.00 C 743.76 53.07 742.67 62.63 743.00 72.00 C 743.33 81.37 741.67 89.31 748.25 95.75 C 754.82 102.19 763.50 101.07 772.00 101.00 C 780.50 100.93 790.37 102.67 796.75 96.75 C 803.14 90.83 803.48 82.37 803.00 74.00 C 802.52 65.63 803.84 53.08 802.93 45.07 C 802.01 37.07 797.14 30.81 789.00 30.00 C 780.86 29.19 769.44 30.61 761.00 30.00
C 761.00 21.00 761.00 12.00 761.00 3.00
M 783.00 48.00 
C 786.92 50.12 784.99 61.04 785.00 65.00 C 785.01 68.96 787.14 80.72 782.30 82.30 C 777.47 83.88 768.51 83.57 763.78 82.22 C 759.05 80.88 760.95 69.50 761.00 66.00 C 761.05 62.50 759.19 49.16 763.25 48.25 C 767.31 47.34 779.53 46.12 783.00 48.00 Z"/>
</g>
<g fill="#D2E7D6" fill-opacity="1.00" stroke="None">
<path d="
M 249.00 7.00 
C 253.54 4.52 259.15 4.69 264.00 6.00
C 259.25 3.90 254.15 2.56 249.00 7.00 Z"/>
</g>
<g fill="#2A552F" fill-opacity="1.00" stroke="None">
<path d="
M 249.00 7.00 
C 241.89 13.13 239.94 18.28 240.00 28.00 C 240.06 37.72 240.61 46.78 240.00 57.00 C 239.39 67.22 241.68 74.92 240.00 86.00 C 238.32 97.08 242.32 103.23 254.00 101.00 C 265.68 98.77 258.82 87.42 260.00 78.00 C 261.19 68.58 260.00 58.48 260.00 49.00
C 260.00 44.67 260.00 40.33 260.00 36.00
C 261.39 37.38 261.29 40.06 262.00 42.00
C 266.67 59.99 269.76 70.05 274.02 88.98 C 278.29 107.90 299.17 104.06 302.02 86.02 C 304.87 67.99 309.24 55.95 314.00 39.00
C 314.46 37.38 315.12 35.81 315.00 34.00
C 316.60 34.53 315.72 36.75 316.00 38.00
C 316.00 59.00 316.00 80.00 316.00 101.00
C 322.33 101.00 328.67 101.00 335.00 101.00
C 334.17 84.86 336.10 63.64 335.00 48.00 C 333.90 32.36 340.73 13.85 324.68 6.32 C 308.63 -1.20 298.97 14.73 297.33 28.33 C 295.69 41.92 290.40 57.05 287.00 70.00
C 283.18 59.37 281.77 45.31 278.78 34.22 C 275.78 23.13 277.17 9.57 264.00 6.00
C 259.15 4.69 253.54 4.52 249.00 7.00 Z"/>
</g>
<g fill="#29542E" fill-opacity="1.00" stroke="None">
<path d="
M 656.00 91.00 
C 657.29 88.39 657.42 86.82 658.00 84.00
C 658.52 78.33 658.52 71.67 658.00 66.00
C 657.44 63.30 657.39 60.45 656.00 58.00
C 654.99 56.29 653.22 53.95 651.00 54.00
C 659.75 44.11 666.01 16.56 650.23 8.77 C 634.44 0.98 608.68 8.86 591.00 6.00
C 590.44 20.77 591.74 34.09 591.00 49.00 C 590.26 63.91 592.45 75.42 591.00 91.00 C 589.55 106.58 612.28 100.27 624.00 101.00 C 635.72 101.73 650.36 102.40 656.00 91.00
M 635.00 27.00 
C 636.22 27.56 637.17 27.73 638.00 29.00
C 639.92 31.94 640.47 41.37 636.00 43.00
C 628.64 45.68 618.60 40.99 611.00 43.00
C 611.65 37.84 609.69 31.34 612.00 27.00
C 615.00 24.00 631.59 25.43 635.00 27.00
M 611.00 80.00 
C 611.00 74.33 611.00 68.67 611.00 63.00
C 620.59 65.60 636.86 56.58 638.00 71.00 C 639.14 85.43 620.80 78.52 611.00 80.00 Z"/>
</g>
<g fill="#869D8A" fill-opacity="1.00" stroke="None">
<path d="
M 612.00 27.00 
C 614.12 25.52 620.12 27.14 623.00 27.00 C 625.88 26.86 632.10 26.19 635.00 27.00
C 631.59 25.43 615.00 24.00 612.00 27.00 Z"/>
</g>
<g fill="#E5F4E5" fill-opacity="1.00" stroke="None">
<path d="
M 636.00 43.00 
C 638.77 41.57 639.07 31.50 638.00 29.00
C 637.17 27.73 636.22 27.56 635.00 27.00
C 632.10 26.19 625.88 26.86 623.00 27.00 C 620.12 27.14 614.12 25.52 612.00 27.00
C 609.69 31.34 611.65 37.84 611.00 43.00
C 618.60 40.99 628.64 45.68 636.00 43.00
M 636.00 29.00 
C 636.47 33.55 637.06 36.54 636.00 41.00
C 629.80 39.22 613.18 47.48 613.00 35.00 C 612.82 22.52 630.41 29.70 636.00 29.00 Z"/>
</g>
<g fill="#FCFDFC" fill-opacity="1.00" stroke="None">
<path d="
M 636.00 29.00 
C 630.41 29.70 612.82 22.52 613.00 35.00 C 613.18 47.48 629.80 39.22 636.00 41.00
C 637.06 36.54 636.47 33.55 636.00 29.00 Z"/>
</g>
<g fill="#647A65" fill-opacity="1.00" stroke="None">
<path d="
M 636.00 43.00 
C 640.47 41.37 639.92 31.94 638.00 29.00
C 639.07 31.50 638.77 41.57 636.00 43.00 Z"/>
</g>
<g fill="#2A542E" fill-opacity="1.00" stroke="None">
<path d="
M 387.00 47.00 
C 394.16 50.54 384.73 55.31 380.00 54.00 C 375.27 52.69 366.95 53.66 362.00 54.00
C 348.94 54.89 347.59 66.38 347.00 77.00 C 346.41 87.62 349.78 100.31 361.93 100.07 C 374.07 99.83 385.94 104.43 397.00 99.00
C 397.63 98.69 398.43 98.35 399.00 98.00
C 400.26 96.82 403.11 94.29 404.00 93.00
C 405.31 90.74 405.45 88.48 406.00 86.00
C 407.32 73.14 407.59 56.83 406.00 44.00
C 398.98 19.59 366.04 33.77 347.00 30.00
C 348.80 34.05 343.74 44.92 349.00 47.00 C 354.26 49.08 362.54 45.28 368.00 47.00 C 373.46 48.72 381.93 44.49 387.00 47.00
M 388.00 73.00 
C 389.27 75.30 389.62 78.75 388.00 81.00
C 383.84 86.77 364.34 84.69 365.00 76.00 C 365.66 67.31 384.63 66.88 388.00 73.00 Z"/>
</g>
<g fill="#2A552F" fill-opacity="1.00" stroke="None">
<path d="
M 455.00 100.00 
C 458.58 102.51 466.98 98.12 471.00 100.00
C 471.67 84.17 469.67 67.01 472.00 52.00
C 472.00 51.50 472.00 51.00 472.00 51.00
C 476.82 45.69 489.49 45.72 489.00 55.00 C 488.51 64.28 488.50 72.68 489.00 82.00 C 489.50 91.32 484.43 99.57 496.00 101.00 C 507.57 102.43 507.94 94.92 507.00 85.00 C 506.06 75.08 507.53 67.19 507.00 58.00 C 506.47 48.81 508.68 42.75 503.25 35.75 C 497.81 28.76 489.88 30.12 482.00 30.00 C 474.12 29.88 467.32 29.61 462.00 36.00
C 454.64 27.62 422.63 23.64 419.33 41.33 C 416.03 59.02 421.12 82.67 419.00 101.00
C 428.87 103.12 440.00 101.18 437.00 90.00 C 434.00 78.82 440.18 72.31 437.00 62.00 C 433.82 51.69 441.76 44.11 450.92 48.08 C 460.08 52.06 450.73 66.17 454.00 73.00 C 457.27 79.83 449.57 94.57 455.00 100.00 Z"/>
</g>
<g fill="#2A552F" fill-opacity="1.00" stroke="None">
<path d="
M 561.00 53.00 
C 559.10 55.97 551.55 53.30 548.00 54.00 C 544.45 54.70 537.84 53.65 534.00 54.00
C 517.69 55.31 521.23 69.22 520.00 82.00 C 518.77 94.78 531.06 102.66 543.00 101.00 C 554.94 99.34 569.15 104.85 576.08 93.08 C 583.00 81.31 576.88 66.72 579.00 54.00 C 581.12 41.28 574.36 29.63 561.00 30.00 C 547.64 30.37 533.44 29.72 520.00 30.00
C 520.00 35.67 520.00 41.33 520.00 47.00
C 524.78 46.64 531.40 47.48 536.00 47.00 C 540.60 46.52 548.07 47.92 552.00 47.00 C 555.93 46.08 563.99 48.32 561.00 53.00
M 559.00 70.00 
C 561.96 71.59 562.59 82.71 557.92 82.92 C 553.25 83.13 543.47 83.49 539.33 82.67 C 535.19 81.85 536.04 69.55 540.08 70.08 C 544.12 70.62 555.23 67.96 559.00 70.00 Z"/>
</g>
<g fill="#2A552E" fill-opacity="1.00" stroke="None">
<path d="
M 718.00 30.00 
C 705.91 28.04 687.96 27.25 677.25 33.25 C 666.54 39.24 672.86 60.85 671.00 71.00 C 669.14 81.15 671.40 100.58 684.78 100.22 C 698.15 99.87 713.17 104.98 724.75 97.75 C 736.33 90.52 729.09 71.05 731.00 60.00 C 732.91 48.96 730.87 32.09 718.00 30.00
M 711.00 48.00 
C 714.95 50.13 712.90 61.10 713.00 65.00 C 713.10 68.90 714.94 80.16 710.25 82.25 C 705.55 84.33 696.49 83.36 691.78 82.22 C 687.06 81.08 689.00 69.40 689.00 66.00 C 689.00 62.60 687.36 49.30 691.25 48.25 C 695.14 47.21 707.66 46.20 711.00 48.00 Z"/>
</g>
<g fill="#2A552E" fill-opacity="1.00" stroke="None">
<path d="
M 862.00 30.00 
C 849.88 28.03 831.99 27.29 821.25 33.25 C 810.50 39.20 816.74 60.90 815.00 71.00 C 813.26 81.10 815.48 100.49 828.78 100.22 C 842.07 99.95 857.23 105.03 868.75 97.75 C 880.27 90.47 873.13 71.34 875.00 60.00 C 876.87 48.66 875.17 32.14 862.00 30.00
M 855.00 48.00 
C 859.07 50.10 856.87 61.09 857.00 65.00 C 857.13 68.91 858.91 80.27 854.25 82.25 C 849.58 84.22 840.44 83.68 835.78 82.22 C 831.12 80.76 832.89 69.33 833.00 66.00 C 833.11 62.67 831.12 49.10 835.25 48.25 C 839.38 47.40 851.39 46.13 855.00 48.00 Z"/>
</g>
<g fill="#8AAE8C" fill-opacity="1.00" stroke="None">
<path d="
M 314.00 39.00 
C 314.17 38.71 315.83 38.45 316.00 38.00
C 315.72 36.75 316.60 34.53 315.00 34.00
C 315.12 35.81 314.46 37.38 314.00 39.00 Z"/>
</g>
<g fill="#D1E9D3" fill-opacity="1.00" stroke="None">
<path d="
M 260.00 49.00 
C 260.03 48.79 262.07 43.79 262.00 42.00
C 261.29 40.06 261.39 37.38 260.00 36.00
C 260.00 40.33 260.00 44.67 260.00 49.00 Z"/>
</g>
<g fill="#AFC6B3" fill-opacity="1.00" stroke="None">
<path d="
M 406.00 86.00 
C 408.46 74.91 408.47 57.90 407.00 46.00
C 406.86 44.89 406.23 44.66 406.00 44.00
C 407.59 56.83 407.32 73.14 406.00 86.00 Z"/>
</g>
<g fill="#E5F5E6" fill-opacity="1.00" stroke="None">
<path d="
M 406.00 86.00 
C 405.45 88.48 405.31 90.74 404.00 93.00
C 402.83 95.01 400.92 96.83 399.00 98.00
C 398.43 98.35 397.63 98.69 397.00 99.00
C 400.34 101.92 402.01 93.69 406.00 95.00
C 406.27 80.92 412.60 59.74 407.00 46.00
C 408.47 57.90 408.46 74.91 406.00 86.00 Z"/>
</g>
<g fill="#829986" fill-opacity="1.00" stroke="None">
<path d="
M 362.00 54.00 
C 366.95 53.66 375.27 52.69 380.00 54.00 C 384.73 55.31 394.16 50.54 387.00 47.00
C 388.23 48.77 388.06 50.88 388.00 53.00
C 379.37 52.98 369.91 52.58 362.00 54.00 Z"/>
</g>
<g fill="#F5FAF5" fill-opacity="1.00" stroke="None">
<path d="
M 711.00 48.00 
C 707.66 46.20 695.14 47.21 691.25 48.25 C 687.36 49.30 689.00 62.60 689.00 66.00 C 689.00 69.40 687.06 81.08 691.78 82.22 C 696.49 83.36 705.55 84.33 710.25 82.25 C 714.94 80.16 713.10 68.90 713.00 65.00 C 712.90 61.10 714.95 50.13 711.00 48.00 Z"/>
</g>
<g fill="#F5F9F5" fill-opacity="1.00" stroke="None">
<path d="
M 783.00 48.00 
C 779.53 46.12 767.31 47.34 763.25 48.25 C 759.19 49.16 761.05 62.50 761.00 66.00 C 760.95 69.50 759.05 80.88 763.78 82.22 C 768.51 83.57 777.47 83.88 782.30 82.30 C 787.14 80.72 785.01 68.96 785.00 65.00 C 784.99 61.04 786.92 50.12 783.00 48.00 Z"/>
</g>
<g fill="#F5FAF5" fill-opacity="1.00" stroke="None">
<path d="
M 855.00 48.00 
C 851.39 46.13 839.38 47.40 835.25 48.25 C 831.12 49.10 833.11 62.67 833.00 66.00 C 832.89 69.33 831.12 80.76 835.78 82.22 C 840.44 83.68 849.58 84.22 854.25 82.25 C 858.91 80.27 857.13 68.91 857.00 65.00 C 856.87 61.09 859.07 50.10 855.00 48.00 Z"/>
</g>
<g fill="#E0F1E1" fill-opacity="1.00" stroke="None">
<path d="
M 472.00 52.00 
C 472.00 68.33 472.00 84.67 472.00 101.00
C 475.24 98.73 472.39 88.11 473.00 84.00 C 473.61 79.89 473.31 71.23 473.00 67.00 C 472.69 62.77 474.91 53.80 472.00 51.00
C 472.00 51.00 472.00 51.50 472.00 52.00 Z"/>
</g>
<g fill="#617963" fill-opacity="1.00" stroke="None">
<path d="
M 455.00 100.00 
C 456.43 101.43 469.94 102.44 472.00 101.00
C 472.00 84.67 472.00 68.33 472.00 52.00
C 469.67 67.01 471.67 84.17 471.00 100.00
C 466.98 98.12 458.58 102.51 455.00 100.00 Z"/>
</g>
<g fill="#839A89" fill-opacity="1.00" stroke="None">
<path d="
M 534.00 54.00 
C 537.84 53.65 544.45 54.70 548.00 54.00 C 551.55 53.30 559.10 55.97 561.00 53.00
C 552.06 53.19 542.22 52.30 534.00 54.00 Z"/>
</g>
<g fill="#DBE9D9" fill-opacity="1.00" stroke="None">
<path d="
M 658.00 66.00 
C 659.17 71.63 659.15 78.43 658.00 84.00
C 657.42 86.82 657.29 88.39 656.00 91.00
C 661.84 83.82 662.94 66.45 656.00 58.00
C 657.39 60.45 657.44 63.30 658.00 66.00 Z"/>
</g>
<g fill="#F1F7F1" fill-opacity="1.00" stroke="None">
<path d="
M 611.00 80.00 
C 620.80 78.52 639.14 85.43 638.00 71.00 C 636.86 56.58 620.59 65.60 611.00 63.00
C 611.00 68.67 611.00 74.33 611.00 80.00 Z"/>
</g>
<g fill="#768F78" fill-opacity="1.00" stroke="None">
<path d="
M 658.00 84.00 
C 659.15 78.43 659.17 71.63 658.00 66.00
C 658.52 71.67 658.52 78.33 658.00 84.00 Z"/>
</g>
<g fill="#F4FAF4" fill-opacity="1.00" stroke="None">
<path d="
M 388.00 81.00 
C 388.56 79.87 388.44 74.20 388.00 73.00
C 384.63 66.88 365.66 67.31 365.00 76.00 C 364.34 84.69 383.84 86.77 388.00 81.00 Z"/>
</g>
<g fill="#F1F7F0" fill-opacity="1.00" stroke="None">
<path d="
M 559.00 70.00 
C 555.23 67.96 544.12 70.62 540.08 70.08 C 536.04 69.55 535.19 81.85 539.33 82.67 C 543.47 83.49 553.25 83.13 557.92 82.92 C 562.59 82.71 561.96 71.59 559.00 70.00 Z"/>
</g>
<g fill="#79947E" fill-opacity="1.00" stroke="None">
<path d="
M 388.00 81.00 
C 389.62 78.75 389.27 75.30 388.00 73.00
C 388.44 74.20 388.56 79.87 388.00 81.00 Z"/>
</g>
<g fill="#5E735E" fill-opacity="1.00" stroke="None">
<path d="
M 399.00 98.00 
C 400.92 96.83 402.83 95.01 404.00 93.00
C 403.11 94.29 400.26 96.82 399.00 98.00 Z"/>
</g>
<g fill="#FBF3E1" fill-opacity="1.00" stroke="None">
<path d="
M 571.00 130.00 
C 572.05 141.71 571.72 153.08 571.00 165.00 C 570.28 176.92 589.59 178.31 589.00 166.00 C 588.41 153.69 589.44 142.24 589.00 130.00
C 590.33 130.00 591.67 130.00 593.00 130.00
C 595.88 129.40 599.09 130.45 602.00 130.00
C 601.93 140.10 602.09 152.09 602.00 162.00 C 601.91 171.91 604.62 182.90 594.00 187.00
C 612.74 180.15 600.38 151.65 604.01 136.01 C 607.64 120.36 594.76 131.61 587.00 127.00
C 588.15 141.43 588.72 156.61 587.00 171.00
C 583.19 173.49 573.50 174.77 572.00 169.00 C 570.50 163.23 573.51 154.50 572.00 149.00 C 570.49 143.50 574.97 133.84 571.00 130.00 Z"/>
</g>
<g fill="#F7ECD4" fill-opacity="1.00" stroke="None">
<path d="
M 784.00 141.00 
C 787.04 150.49 788.57 160.57 792.00 170.00
C 791.77 159.75 795.74 152.50 793.00 141.00 C 790.26 129.50 804.75 125.71 805.00 137.00 C 805.25 148.29 804.56 156.93 805.00 167.00 C 805.44 177.07 805.65 185.66 794.99 186.99 C 784.33 188.33 783.58 177.82 781.67 170.33 C 779.76 162.83 775.52 154.80 774.00 147.00
C 770.41 159.11 776.24 175.86 771.00 187.00
C 772.00 187.00 773.00 187.00 774.00 187.00
C 775.29 177.16 771.40 163.42 776.00 156.00
C 777.12 166.32 783.04 176.46 784.00 186.00
C 793.36 189.68 804.12 189.47 806.22 178.22 C 808.32 166.97 804.85 156.31 807.00 145.00 C 809.15 133.69 806.17 123.93 794.01 128.01 C 781.85 132.09 796.37 146.11 789.00 154.00
C 787.76 149.34 786.34 145.02 784.00 141.00 Z"/>
</g>
<g fill="#F8EFDA" fill-opacity="1.00" stroke="None">
<path d="
M 348.00 152.00 
C 348.00 156.00 348.00 160.00 348.00 164.00
C 339.00 164.00 330.00 164.00 321.00 164.00
C 318.00 174.33 325.97 176.91 335.00 175.00 C 344.03 173.09 351.26 176.47 348.00 187.00
C 337.21 185.91 325.57 189.02 315.33 185.67 C 305.08 182.33 307.59 167.39 308.00 159.00 C 308.41 150.61 304.49 135.29 314.08 131.08 C 323.68 126.87 337.67 131.99 348.00 130.00
C 351.16 139.48 345.33 142.67 338.00 142.00 C 330.68 141.33 321.66 139.59 321.00 147.00
C 325.80 141.71 335.00 141.38 343.00 143.00 C 351.00 144.62 353.93 130.56 346.00 129.00 C 338.07 127.44 328.36 130.76 320.67 128.33 C 312.98 125.90 309.79 132.92 305.00 137.00
C 309.98 150.33 300.11 173.24 309.75 184.25 C 319.39 195.26 339.46 188.02 351.00 187.00
C 348.29 182.35 352.60 176.88 348.00 173.00
C 340.20 173.09 320.43 179.44 322.00 166.00
C 327.56 166.81 334.44 162.07 342.00 165.00 C 349.56 167.93 354.11 154.96 348.00 152.00 Z"/>
</g>
<g fill="#E3C593" fill-opacity="1.00" stroke="None">
<path d="
M 743.00 187.00 
C 741.08 178.51 736.77 170.51 734.78 162.22 C 732.79 153.94 728.35 146.09 725.98 138.03 C 723.60 129.96 712.72 123.94 706.25 131.25 C 699.78 138.55 701.35 146.26 696.78 154.78 C 692.20 163.29 693.67 170.04 688.32 179.32 C 682.98 188.60 697.10 191.40 704.00 185.00
C 702.79 181.94 704.42 179.11 705.00 176.00
C 711.15 175.45 723.59 171.83 725.22 180.78 C 726.86 189.73 736.07 188.66 743.00 187.00
M 714.00 146.00 
C 716.77 151.28 718.03 157.28 720.00 163.00
C 716.33 163.00 712.67 163.00 709.00 163.00
C 709.60 157.16 711.20 150.83 714.00 146.00 Z"/>
</g>
<g fill="#FAF2DE" fill-opacity="1.00" stroke="None">
<path d="
M 386.00 151.00 
C 381.65 139.56 393.92 142.49 403.00 145.00 C 412.07 147.50 415.00 126.20 404.00 129.00 C 393.00 131.80 383.73 125.43 374.25 130.25 C 364.76 135.06 368.79 145.79 368.03 154.97 C 367.27 164.16 383.26 162.97 382.00 170.00
C 384.39 164.28 392.78 165.23 395.00 171.00
C 384.95 175.72 366.99 165.37 368.00 181.00 C 369.01 196.63 386.60 187.30 397.97 189.02 C 409.34 190.74 413.71 176.34 411.98 165.02 C 410.24 153.71 398.19 147.32 386.00 151.00
M 383.00 142.00 
C 378.82 151.77 388.96 152.96 395.00 152.00 C 401.04 151.04 408.73 154.95 408.93 161.07 C 409.12 167.20 410.87 177.15 407.23 182.23 C 403.59 187.31 395.12 187.99 389.00 187.00 C 382.88 186.01 371.83 190.80 370.01 182.99 C 368.19 175.19 377.45 171.83 385.00 175.00 C 392.55 178.17 400.54 169.43 394.29 164.71 C 388.04 159.98 379.96 167.21 374.31 161.69 C 368.65 156.18 370.07 150.10 370.00 143.00 C 369.93 135.90 372.85 131.54 380.03 130.02 C 387.20 128.51 395.34 132.21 403.00 130.00 C 410.66 127.79 413.76 141.24 405.99 141.99 C 398.22 142.74 390.74 141.45 383.00 142.00 Z"/>
</g>
<g fill="#E3C491" fill-opacity="1.00" stroke="None">
<path d="
M 540.00 187.00 
C 536.74 177.05 532.25 163.59 528.78 154.22 C 525.31 144.86 522.72 127.17 510.02 129.02 C 497.33 130.88 497.14 146.60 492.98 155.98 C 488.81 165.35 485.34 178.57 484.00 188.00
C 493.01 191.64 499.73 185.05 501.23 178.23 C 502.74 171.42 521.51 172.20 521.68 179.32 C 521.84 186.44 532.48 191.73 540.00 187.00
M 511.00 145.00 
C 513.14 150.93 516.33 156.55 517.00 163.00
C 513.33 163.00 509.67 163.00 506.00 163.00
C 507.02 156.95 507.76 150.01 511.00 145.00 Z"/>
</g>
<g fill="#FDF5E2" fill-opacity="1.00" stroke="None">
<path d="
M 593.00 187.00 
C 582.37 187.00 559.64 191.50 557.22 176.78 C 554.81 162.05 558.57 144.96 557.00 130.00
C 560.67 130.00 564.33 130.00 568.00 130.00
C 568.50 130.00 569.50 130.00 570.00 130.00
C 559.81 122.46 554.46 133.77 556.00 142.00 C 557.54 150.23 555.82 162.68 556.00 170.00 C 556.18 177.32 558.14 188.23 566.00 188.00 C 573.86 187.77 587.29 191.23 593.00 187.00 Z"/>
</g>
<g fill="#E1C18C" fill-opacity="1.00" stroke="None">
<path d="
M 272.00 164.00 
C 286.37 167.73 292.06 142.36 283.25 133.75 C 274.43 125.15 252.47 132.47 241.00 130.00
C 242.36 139.91 239.19 152.34 241.00 162.00 C 242.81 171.66 234.89 185.18 247.00 187.00 C 259.11 188.81 253.40 172.56 256.00 165.00
C 263.25 175.34 268.58 191.95 285.00 187.00
C 283.22 178.30 275.34 171.99 272.00 164.00
M 272.00 154.00 
C 265.94 153.88 259.42 153.50 255.00 158.00
C 255.99 150.67 251.48 142.47 261.00 142.00 C 270.52 141.53 273.97 143.64 272.00 154.00 Z"/>
</g>
<g fill="#E0C089" fill-opacity="1.00" stroke="None">
<path d="
M 348.00 152.00 
C 339.00 152.00 330.00 152.00 321.00 152.00
C 321.02 150.33 320.97 148.67 321.00 147.00
C 321.66 139.59 330.68 141.33 338.00 142.00 C 345.33 142.67 351.16 139.48 348.00 130.00
C 337.67 131.99 323.68 126.87 314.08 131.08 C 304.49 135.29 308.41 150.61 308.00 159.00 C 307.59 167.39 305.08 182.33 315.33 185.67 C 325.57 189.02 337.21 185.91 348.00 187.00
C 351.26 176.47 344.03 173.09 335.00 175.00 C 325.97 176.91 318.00 174.33 321.00 164.00
C 330.00 164.00 339.00 164.00 348.00 164.00
C 348.00 160.00 348.00 156.00 348.00 152.00 Z"/>
</g>
<g fill="#E0C089" fill-opacity="1.00" stroke="None">
<path d="
M 383.00 142.00 
C 390.74 141.45 398.22 142.74 405.99 141.99 C 413.76 141.24 410.66 127.79 403.00 130.00 C 395.34 132.21 387.20 128.51 380.03 130.02 C 372.85 131.54 369.93 135.90 370.00 143.00 C 370.07 150.10 368.65 156.18 374.31 161.69 C 379.96 167.21 388.04 159.98 394.29 164.71 C 400.54 169.43 392.55 178.17 385.00 175.00 C 377.45 171.83 368.19 175.19 370.01 182.99 C 371.83 190.80 382.88 186.01 389.00 187.00 C 395.12 187.99 403.59 187.31 407.23 182.23 C 410.87 177.15 409.12 167.20 408.93 161.07 C 408.73 154.95 401.04 151.04 395.00 152.00 C 388.96 152.96 378.82 151.77 383.00 142.00 Z"/>
</g>
<g fill="#E0BF89" fill-opacity="1.00" stroke="None">
<path d="
M 468.00 142.00 
C 472.30 131.70 461.63 126.32 453.00 130.00 C 444.37 133.68 434.28 122.67 429.00 133.00 C 423.72 143.33 442.75 138.97 442.00 147.00 C 441.25 155.03 443.15 165.17 442.00 174.00 C 440.85 182.83 443.50 190.86 455.00 187.00
C 455.00 172.00 455.00 157.00 455.00 142.00
C 459.33 142.00 463.67 142.00 468.00 142.00 Z"/>
</g>
<g fill="#DFC089" fill-opacity="1.00" stroke="None">
<path d="
M 593.00 187.00 
C 593.00 187.00 593.50 187.01 594.00 187.00
C 604.62 182.90 601.91 171.91 602.00 162.00 C 602.09 152.09 601.93 140.10 602.00 130.00
C 599.09 130.45 595.88 129.40 593.00 130.00
C 586.58 132.37 591.09 144.99 590.00 151.00 C 588.91 157.01 590.40 167.85 591.00 174.00
C 578.40 178.30 568.03 174.93 570.00 162.00 C 571.97 149.07 570.09 139.00 568.00 130.00
C 564.33 130.00 560.67 130.00 557.00 130.00
C 558.57 144.96 554.81 162.05 557.22 176.78 C 559.64 191.50 582.37 187.00 593.00 187.00 Z"/>
</g>
<g fill="#E6D5B5" fill-opacity="1.00" stroke="None">
<path d="
M 593.00 130.00 
C 591.67 130.00 590.33 130.00 589.00 130.00
C 589.44 142.24 588.41 153.69 589.00 166.00 C 589.59 178.31 570.28 176.92 571.00 165.00 C 571.72 153.08 572.05 141.71 571.00 130.00
C 571.00 130.00 570.50 130.00 570.00 130.00
C 569.50 130.00 568.50 130.00 568.00 130.00
C 570.09 139.00 571.97 149.07 570.00 162.00 C 568.03 174.93 578.40 178.30 591.00 174.00
C 590.40 167.85 588.91 157.01 590.00 151.00 C 591.09 144.99 586.58 132.37 593.00 130.00 Z"/>
</g>
<g fill="#E1C08A" fill-opacity="1.00" stroke="None">
<path d="
M 655.00 164.00 
C 669.23 167.01 674.84 143.64 666.75 134.25 C 658.66 124.85 636.33 132.48 625.00 130.00
C 624.94 141.31 625.08 153.80 625.00 165.00 C 624.92 176.20 621.52 191.83 638.00 187.00
C 638.00 179.67 638.00 172.33 638.00 165.00
C 647.95 173.05 650.65 193.38 669.00 187.00
C 665.87 178.64 658.20 172.29 655.00 164.00
M 638.00 158.00 
C 638.00 152.67 638.00 147.33 638.00 142.00
C 645.62 141.30 658.16 140.14 656.00 150.00 C 653.84 159.86 642.59 150.35 638.00 158.00 Z"/>
</g>
<g fill="#E0C089" fill-opacity="1.00" stroke="None">
<path d="
M 771.00 187.00 
C 776.24 175.86 770.41 159.11 774.00 147.00
C 775.52 154.80 779.76 162.83 781.67 170.33 C 783.58 177.82 784.33 188.33 794.99 186.99 C 805.65 185.66 805.44 177.07 805.00 167.00 C 804.56 156.93 805.25 148.29 805.00 137.00 C 804.75 125.71 790.26 129.50 793.00 141.00 C 795.74 152.50 791.77 159.75 792.00 170.00
C 788.57 160.57 787.04 150.49 784.00 141.00
C 779.79 133.77 771.13 124.28 763.25 133.25 C 755.38 142.23 761.47 154.07 760.00 164.00 C 758.53 173.93 756.97 191.56 771.00 187.00 Z"/>
</g>
<g fill="#E0BF8A" fill-opacity="1.00" stroke="None">
<path d="
M 851.00 187.00 
C 852.17 180.84 849.44 169.65 851.00 164.00 C 852.56 158.35 847.54 145.12 852.00 142.00
C 856.33 142.00 860.67 142.00 865.00 142.00
C 865.00 138.00 865.00 134.00 865.00 130.00
C 851.67 130.00 838.33 130.00 825.00 130.00
C 825.00 134.00 825.00 138.00 825.00 142.00
C 829.33 142.00 833.67 142.00 838.00 142.00
C 836.60 150.79 839.87 162.50 838.00 171.00 C 836.13 179.50 839.36 193.98 851.00 187.00 Z"/>
</g>
<g fill="#FDF9F1" fill-opacity="1.00" stroke="None">
<path d="
M 272.00 154.00 
C 273.97 143.64 270.52 141.53 261.00 142.00 C 251.48 142.47 255.99 150.67 255.00 158.00
C 259.42 153.50 265.94 153.88 272.00 154.00 Z"/>
</g>
<g fill="#FCF7EC" fill-opacity="1.00" stroke="None">
<path d="
M 638.00 158.00 
C 642.59 150.35 653.84 159.86 656.00 150.00 C 658.16 140.14 645.62 141.30 638.00 142.00
C 638.00 147.33 638.00 152.67 638.00 158.00 Z"/>
</g>
<g fill="#F6E7CE" fill-opacity="1.00" stroke="None">
<path d="
M 851.00 187.00 
C 856.03 183.98 851.79 170.77 853.00 165.00 C 854.21 159.23 852.51 147.95 852.00 142.00
C 847.54 145.12 852.56 158.35 851.00 164.00 C 849.44 169.65 852.17 180.84 851.00 187.00 Z"/>
</g>
<g fill="#FAF2DD" fill-opacity="1.00" stroke="None">
<path d="
M 511.00 145.00 
C 507.76 150.01 507.02 156.95 506.00 163.00
C 509.67 163.00 513.33 163.00 517.00 163.00
C 516.33 156.55 513.14 150.93 511.00 145.00 Z"/>
</g>
<g fill="#FBF3E5" fill-opacity="1.00" stroke="None">
<path d="
M 714.00 146.00 
C 711.20 150.83 709.60 157.16 709.00 163.00
C 712.67 163.00 716.33 163.00 720.00 163.00
C 718.03 157.28 716.77 151.28 714.00 146.00 Z"/>
</g>
</svg>