 <svg  version="1.0" xmlns="http://www.w3.org/2000/svg"  width="300.000000pt" height="300.000000pt" viewBox="0 0 300.000000 300.000000"  preserveAspectRatio="xMidYMid meet">  <g transform="translate(0.000000,300.000000) scale(0.100000,-0.100000)" fill="#4ac988" stroke="none"> <path d="M2634 2992 c-37 -25 -44 -96 -13 -136 19 -24 20 -31 9 -51 -16 -29 -7 -55 18 -55 27 0 43 22 49 70 5 33 2 45 -17 65 -20 21 -21 26 -9 60 11 31 11 37 -1 45 -18 12 -22 12 -36 2z"/> <path d="M777 2984 c-4 -4 -7 -26 -7 -49 l0 -41 -62 -13 c-175 -36 -320 -172 -372 -350 -12 -40 -13 -58 -5 -68 9 -10 98 -13 469 -13 397 0 459 2 470 15 10 12 9 28 -9 82 -28 84 -59 137 -113 192 -81 82 -173 132 -271 146 l-46 7 -3 47 c-2 37 -7 47 -23 49 -12 2 -24 0 -28 -4z m128 -170 c119 -31 220 -114 274 -226 17 -36 31 -69 31 -72 0 -3 -184 -6 -410 -6 l-410 0 9 23 c57 150 157 244 301 283 63 17 135 17 205 -2z"/> <path d="M1704 2955 c-22 -34 -22 -89 0 -114 17 -19 18 -33 2 -72 -11 -25 20 -52 44 -39 27 15 44 81 29 114 -7 14 -16 26 -21 26 -11 0 -10 38 3 61 7 15 7 24 -2 35 -17 21 -36 17 -55 -11z"/> <path d="M2167 2964 c-4 -4 -7 -26 -7 -48 l0 -41 -58 -11 c-206 -40 -360 -218 -379 -439 l-6 -74 -41 -3 c-36 -3 -41 -6 -41 -28 0 -21 5 -26 31 -28 29 -3 31 -6 48 -76 19 -80 46 -125 98 -162 40 -28 125 -46 179 -38 46 8 46 8 17 -92 l-21 -74 -486 0 -487 0 -18 68 c-10 37 -21 74 -23 84 -4 13 4 16 54 16 132 0 204 65 234 210 l13 61 45 3 c42 3 46 5 46 28 l0 25 -557 3 c-549 2 -557 2 -563 -18 -10 -31 2 -40 50 -40 41 0 45 -3 51 -27 39 -178 106 -246 241 -245 35 0 63 -1 63 -3 0 -2 -4 -14 -9 -27 -6 -13 -17 -49 -26 -80 l-16 -58 -207 0 c-228 0 -257 -6 -315 -66 -65 -65 -62 -34 -65 -658 -2 -418 0 -572 9 -582 9 -11 46 -14 163 -14 l151 0 -3 -251 c-3 -256 0 -279 35 -279 11 0 13 7 8 30 -7 30 -6 31 22 23 15 -4 70 -8 121 -8 92 1 93 1 87 -22 -3 -15 -1 -23 8 -23 34 0 37 21 37 279 l0 256 855 -3 855 -2 0 -259 c0 -227 2 -260 16 -265 29 -11 34 -6 27 26 -6 28 -4 30 13 22 10 -5 65 -9 122 -9 102 0 103 0 97 -22 -4 -16 -1 -23 9 -23 34 0 37 24 34 279 l-3 251 150 0 c152 0 175 5 175 38 0 9 -7 13 -20 9 -19 -5 -20 -2 -13 31 3 21 6 89 5 152 0 63 -1 199 -1 302 -1 182 -2 188 -25 215 l-24 28 19 37 c23 45 26 71 28 206 1 66 5 101 11 97 15 -9 12 52 -4 83 -21 39 -75 89 -118 106 -30 13 -80 16 -246 16 l-209 0 -21 74 c-30 100 -30 100 20 93 58 -8 136 9 176 37 52 37 79 82 98 162 17 70 19 73 48 76 26 2 31 7 31 28 0 22 -5 25 -42 28 l-43 3 0 42 c-1 116 -61 257 -147 343 -60 60 -173 121 -243 130 l-49 6 -3 47 c-3 41 -6 46 -28 49 -14 2 -29 0 -33 -4z m186 -187 c148 -68 232 -190 253 -369 l6 -58 -416 0 -417 0 6 48 c27 202 132 346 291 396 77 25 204 17 277 -17z m-580 -440 c6 -16 -39 -51 -48 -36 -7 10 21 49 35 49 5 0 10 -6 13 -13z m897 -29 c0 -13 -27 -9 -40 7 -19 23 -1 39 21 19 10 -9 19 -21 19 -26z m-1465 -55 c-11 -60 -47 -126 -84 -150 -33 -22 -40 -23 -308 -23 -294 0 -303 1 -351 53 -17 18 -61 128 -62 155 0 1 182 2 405 2 l406 0 -6 -37z m1425 31 c0 -22 -36 -124 -51 -145 -39 -56 -60 -59 -384 -59 -324 0 -345 3 -384 59 -15 21 -51 123 -51 145 0 3 196 6 435 6 239 0 435 -3 435 -6z m-1703 -349 c12 -44 23 -81 23 -82 0 -2 -65 -3 -144 -3 l-143 0 25 83 26 84 95 -1 95 -1 23 -80z m1388 -2 l23 -83 -143 0 -143 0 14 48 c8 26 19 63 24 83 l10 36 96 -1 97 -1 22 -82z m-1913 -355 c-4 -235 -7 -248 -69 -295 -50 -38 -132 -40 -186 -3 -63 43 -77 85 -77 241 0 120 2 140 23 179 34 69 84 90 212 90 l100 0 -3 -212z m426 10 c-4 -225 -7 -239 -72 -296 -46 -40 -110 -51 -171 -28 -47 18 -102 72 -110 109 -2 12 -6 111 -7 220 l-3 197 183 0 184 0 -4 -202z m420 -6 c-3 -207 -3 -209 -30 -249 -31 -46 -97 -83 -149 -83 -50 1 -112 33 -145 76 l-29 37 -3 214 -3 213 181 0 181 0 -3 -208z m422 11 c0 -173 -3 -203 -19 -240 -60 -132 -256 -132 -320 -1 -19 41 -21 61 -21 241 l0 197 180 0 180 0 0 -197z m420 -2 c0 -117 -4 -211 -11 -228 -23 -61 -100 -112 -168 -113 -52 0 -118 37 -149 83 -27 40 -27 42 -30 249 l-3 208 180 0 181 0 0 -199z m426 168 c-3 -17 -6 -111 -6 -209 0 -168 -1 -179 -23 -211 -64 -95 -182 -114 -267 -43 -60 51 -64 69 -68 292 l-4 202 187 0 188 0 -7 -31z m334 8 c30 -16 51 -37 68 -68 22 -41 23 -52 20 -185 -3 -133 -4 -143 -30 -181 -31 -46 -97 -83 -149 -83 -68 1 -145 52 -168 112 -7 20 -16 333 -11 421 0 4 51 7 113 7 100 0 119 -3 157 -23z m-1977 -409 c7 -25 3 -33 -12 -23 -13 8 -15 45 -2 45 5 0 11 -10 14 -22z m417 -4 c0 -8 -2 -14 -4 -14 -2 0 -12 -3 -21 -6 -14 -6 -14 -3 -4 19 12 27 29 27 29 1z m428 -8 c-2 -10 -7 -13 -17 -7 -8 6 -11 16 -7 27 8 21 30 4 24 -20z m-1648 -22 c22 -34 22 -36 4 -49 -10 -7 -22 -11 -26 -8 -7 3 -7 93 -1 93 1 0 11 -16 23 -36z m474 -110 c95 -44 193 -27 268 47 l47 47 27 -35 c34 -44 115 -83 174 -83 77 0 121 18 175 72 27 27 51 45 53 39 18 -55 119 -111 202 -111 83 0 184 56 202 111 2 6 26 -12 53 -39 54 -54 98 -72 175 -72 59 0 140 38 175 82 l27 35 47 -46 c50 -50 100 -71 172 -71 58 0 139 39 175 84 l28 35 30 -36 c57 -69 170 -100 257 -72 19 6 51 25 72 41 l37 29 0 -338 0 -338 -1435 0 -1435 0 0 332 0 333 45 -32 c37 -26 57 -33 108 -36 53 -3 70 1 117 25 31 16 64 42 75 59 l20 32 29 -35 c16 -20 52 -46 80 -59z m46 -916 l0 -238 -100 0 -100 0 0 233 c0 129 2 236 4 238 3 2 48 4 100 4 l96 0 0 -237z m2023 -2 l2 -236 -97 0 -98 0 0 238 0 237 96 -2 95 -2 2 -235z"/> <path d="M85 2946 c-116 -51 -100 -224 24 -251 43 -9 115 25 135 64 37 70 7 156 -64 185 -48 19 -56 19 -95 2z m95 -76 c41 -41 10 -110 -47 -110 -34 0 -46 8 -62 38 -34 65 56 125 109 72z"/> <path d="M1414 357 c-69 -63 -53 -172 30 -211 43 -20 69 -20 112 0 83 39 99 148 30 211 -30 28 -43 33 -86 33 -43 0 -56 -5 -86 -33z m133 -49 c46 -43 18 -108 -47 -108 -64 0 -92 61 -48 107 27 29 65 29 95 1z"/> </g> </svg> 